# 3ds Max Wavefront OBJ Exporter v0.97b - (c)2007 guruware
# File Created: 10.07.2020 17:01:29

mtllib lato lungo stretto.mtl

#
# object 2Fungo_sotto2
#

v  49.3324 0.4733 -0.1011
v  49.2231 0.5364 -0.1421
v  49.2231 0.5364 -0.2748
v  49.3324 0.4733 -0.3157
v  49.3999 0.4343 -0.2084
v  50.1799 0.9596 -0.3157
v  50.2474 0.9206 -0.2084
v  50.0707 1.0226 -0.2748
v  50.0707 1.0226 -0.1421
v  50.1799 0.9596 -0.1011
v  50.6526 1.8567 -0.3157
v  50.7201 1.8177 -0.2084
v  50.5433 1.9198 -0.2748
v  50.5433 1.9198 -0.1421
v  50.6526 1.8567 -0.1011
# 15 vertices

vn -0.2852 -0.5190 0.8058
vn -0.8771 0.1333 0.4614
vn -0.8772 0.1329 -0.4614
vn -0.2852 -0.5190 -0.8058
vn -0.0021 -1.0000 -0.0000
vn 0.2469 -0.3834 -0.8900
vn 0.6699 -0.7425 -0.0000
vn -0.4540 0.6034 -0.6556
vn -0.4540 0.6034 0.6556
vn 0.2469 -0.3834 0.8900
vn 0.4992 0.4077 -0.7645
vn 0.9894 0.1451 -0.0000
vn -0.2912 0.8325 -0.4713
vn -0.2911 0.8325 0.4713
vn 0.4992 0.4077 0.7645
# 15 vertex normals

vt 0.2045 0.0000 -0.3820
vt 0.0674 0.0000 -1.2361
vt 0.5281 0.0000 -0.3820
vt 0.9500 0.0000 1.0000
vt 0.7500 0.0000 1.0000
vt 0.9500 0.3333 1.0000
vt 0.7500 0.3333 1.0000
vt -0.0500 0.0000 1.0000
vt 0.1500 0.0000 1.0000
vt 0.1500 0.3333 1.0000
vt -0.0500 0.3333 1.0000
vt 0.3500 0.0000 1.0000
vt 0.3500 0.3333 1.0000
vt 0.5500 0.0000 1.0000
vt 0.5500 0.3333 1.0000
vt 0.9500 0.6667 1.0000
vt 0.7500 0.6667 1.0000
vt 0.1500 0.6667 1.0000
vt -0.0500 0.6667 1.0000
vt 0.3500 0.6667 1.0000
vt 0.5500 0.6667 1.0000
# 21 texture coords

o 2Fungo_sotto2
g 2Fungo_sotto2
usemtl wire_086086086
s 1
f 1/1/1 2/2/2 3/3/3 4/4/4 5/5/5 
s 8
f 5/5/5 4/4/4 6/6/6 7/7/7 
f 4/8/4 3/9/3 8/10/8 6/11/6 
f 3/9/3 2/12/2 9/13/9 8/10/8 
f 2/12/2 1/14/1 10/15/10 9/13/9 
f 1/14/1 5/5/5 7/7/7 10/15/10 
f 7/7/7 6/6/6 11/16/11 12/17/12 
f 6/11/6 8/10/8 13/18/13 11/19/11 
f 8/10/8 9/13/9 14/20/14 13/18/13 
f 9/13/9 10/15/10 15/21/15 14/20/14 
f 10/15/10 7/7/7 12/17/12 15/21/15 
s off
f 11/16/11 13/18/13 14/20/14 15/21/15 12/17/12 
# 12 polygons

