# 3ds Max Wavefront OBJ Exporter v0.97b - (c)2007 guruware
# File Created: 10.07.2020 17:07:45

mtllib sotto zigzag.mtl

#
# object Cylinder009
#

v  70.6460 0.1162 0.3050
v  70.4320 0.1162 0.3050
v  70.3249 0.1162 0.1196
v  70.4320 0.1162 -0.0658
v  70.6460 0.1162 -0.0658
v  70.7530 0.1162 0.1196
v  70.6947 1.0920 -0.0764
v  70.8061 1.1117 0.1196
v  70.5709 1.0708 -0.0764
v  70.4595 1.0511 0.1196
v  70.5709 1.0708 0.3155
v  70.6947 1.0920 0.3155
v  70.5264 2.0285 0.0144
v  70.5880 2.0285 0.1196
v  70.4033 2.0285 0.0144
v  70.3418 2.0285 0.1196
v  70.4033 2.0285 0.2248
v  70.5264 2.0285 0.2248
v  70.6468 2.9847 0.0095
v  70.7104 2.9847 0.1196
v  70.5197 2.9847 0.0095
v  70.4561 2.9847 0.1196
v  70.5197 2.9847 0.2297
v  70.6468 2.9847 0.2297
# 24 vertices

vn 0.3829 -0.6227 0.6824
vn -0.4339 -0.5840 0.6860
vn -0.8313 -0.5559 0.0000
vn -0.4339 -0.5840 -0.6860
vn 0.3829 -0.6227 -0.6824
vn 0.7767 -0.6299 0.0000
vn 0.5144 0.0665 -0.8550
vn 0.9956 0.0936 -0.0000
vn -0.4595 0.0253 -0.8878
vn -0.9998 0.0198 -0.0000
vn -0.4595 0.0253 0.8878
vn 0.5144 0.0665 0.8550
vn 0.4657 0.0543 -0.8833
vn 0.9984 0.0564 0.0000
vn -0.5381 0.0209 -0.8426
vn -1.0000 -0.0004 0.0000
vn -0.5381 0.0209 0.8426
vn 0.4657 0.0543 0.8833
vn 0.4289 0.5832 -0.6899
vn 0.8272 0.5618 0.0000
vn -0.3647 0.6295 -0.6861
vn -0.7562 0.6543 0.0000
vn -0.3647 0.6295 0.6861
vn 0.4289 0.5832 0.6899
# 24 vertex normals

vt 0.3333 0.0000 -0.0000
vt 0.0833 0.0000 -1.0000
vt 0.2500 0.0000 -1.0000
vt 0.6667 0.0000 -0.0000
vt 0.9167 0.0000 1.0000
vt 0.7500 0.0000 1.0000
vt 0.9167 0.3333 1.0000
vt 0.7500 0.3333 1.0000
vt -0.0833 0.0000 1.0000
vt 0.0833 0.0000 1.0000
vt 0.0833 0.3333 1.0000
vt -0.0833 0.3333 1.0000
vt 0.2500 0.0000 1.0000
vt 0.2500 0.3333 1.0000
vt 0.4167 0.0000 1.0000
vt 0.4167 0.3333 1.0000
vt 0.5833 0.0000 1.0000
vt 0.5833 0.3333 1.0000
vt 0.9167 0.6667 1.0000
vt 0.7500 0.6667 1.0000
vt 0.0833 0.6667 1.0000
vt -0.0833 0.6667 1.0000
vt 0.2500 0.6667 1.0000
vt 0.4167 0.6667 1.0000
vt 0.5833 0.6667 1.0000
vt 0.9167 1.0000 1.0000
vt 0.7500 1.0000 1.0000
vt 0.0833 1.0000 1.0000
vt -0.0833 1.0000 1.0000
vt 0.2500 1.0000 1.0000
vt 0.4167 1.0000 1.0000
vt 0.5833 1.0000 1.0000
vt 0.6667 1.0000 0.0000
vt 0.2500 1.0000 -1.0000
vt 0.0833 1.0000 -1.0000
# 35 texture coords

o Cylinder009
g Cylinder009
usemtl wire_148177027
s 1
f 1/1/1 2/2/2 3/3/3 4/4/4 5/5/5 6/6/6 
s 8
f 6/6/6 5/5/5 7/7/7 8/8/8 
f 5/9/5 4/10/4 9/11/9 7/12/7 
f 4/10/4 3/13/3 10/14/10 9/11/9 
f 3/13/3 2/15/2 11/16/11 10/14/10 
f 2/15/2 1/17/1 12/18/12 11/16/11 
f 1/17/1 6/6/6 8/8/8 12/18/12 
f 8/8/8 7/7/7 13/19/13 14/20/14 
f 7/12/7 9/11/9 15/21/15 13/22/13 
f 9/11/9 10/14/10 16/23/16 15/21/15 
f 10/14/10 11/16/11 17/24/17 16/23/16 
f 11/16/11 12/18/12 18/25/18 17/24/17 
f 12/18/12 8/8/8 14/20/14 18/25/18 
f 14/20/14 13/19/13 19/26/19 20/27/20 
f 13/22/13 15/21/15 21/28/21 19/29/19 
f 15/21/15 16/23/16 22/30/22 21/28/21 
f 16/23/16 17/24/17 23/31/23 22/30/22 
f 17/24/17 18/25/18 24/32/24 23/31/23 
f 18/25/18 14/20/14 20/27/20 24/32/24 
s 1
f 24/32/24 20/27/20 19/26/19 21/33/21 22/34/22 23/35/23 
# 20 polygons

