# 3ds Max Wavefront OBJ Exporter v0.97b - (c)2007 guruware
# File Created: 10.07.2020 17:02:41

mtllib sotto bacchetta.mtl

#
# object 5fungo_sotto
#

v  54.3064 2.3328 -0.2114
v  54.4549 0.1923 -0.2114
v  54.3528 0.1923 -0.3883
v  54.2786 2.3328 -0.2596
v  54.1486 0.1923 -0.3883
v  54.2229 2.3328 -0.2596
v  54.0466 0.1923 -0.2114
v  54.1951 2.3328 -0.2114
v  54.1486 0.1923 -0.0346
v  54.2229 2.3328 -0.1633
v  54.3528 0.1923 -0.0346
v  54.2786 2.3328 -0.1633
v  54.4035 0.0000 -0.2114
v  54.3271 0.0000 -0.3437
v  54.1744 0.0000 -0.3437
v  54.0980 0.0000 -0.2114
v  54.1744 0.0000 -0.0792
v  54.3271 0.0000 -0.0792
v  54.2507 0.0000 -0.2114
# 19 vertices

vn 0.7718 0.6359 0.0000
vn 0.9958 -0.0913 -0.0000
vn 0.4979 -0.0913 -0.8624
vn 0.3859 0.6359 -0.6684
vn -0.4979 -0.0913 -0.8624
vn -0.3859 0.6359 -0.6684
vn -0.9958 -0.0913 -0.0000
vn -0.7718 0.6359 -0.0000
vn -0.4979 -0.0913 0.8624
vn -0.3859 0.6359 0.6684
vn 0.4979 -0.0913 0.8624
vn 0.3859 0.6359 0.6684
vn 0.6426 0.7662 0.0000
vn 0.3540 -0.7062 -0.6131
vn -0.3540 -0.7062 -0.6131
vn -0.7080 -0.7062 0.0000
vn -0.3540 -0.7062 0.6131
vn 0.3540 -0.7062 0.6131
vn 0.0000 -1.0000 -0.0000
vn -0.0000 -1.0000 0.0000
vn 1.0000 0.0000 -0.0000
# 21 vertex normals

vt 0.0000 0.6667 0.0000
vt 0.0000 0.3333 0.0000
vt 0.1667 0.3333 0.0000
vt 0.1667 0.6667 0.0000
vt 0.3333 0.3333 0.0000
vt 0.3333 0.6667 0.0000
vt 0.5000 0.3333 0.0000
vt 0.5000 0.6667 0.0000
vt 0.6667 0.3333 0.0000
vt 0.6667 0.6667 0.0000
vt 0.8333 0.3333 0.0000
vt 0.8333 0.6667 0.0000
vt 1.0000 0.3333 0.0000
vt 1.0000 0.6667 0.0000
vt 0.0000 0.0000 0.0000
vt 0.1667 0.0000 0.0000
vt 0.3333 0.0000 0.0000
vt 0.5000 0.0000 0.0000
vt 0.6667 0.0000 0.0000
vt 0.8333 0.0000 0.0000
vt 1.0000 0.0000 0.0000
vt 1.0000 0.5000 0.0000
vt 0.7500 0.9330 0.0000
vt 0.2500 0.9330 0.0000
vt 0.0000 0.5000 0.0000
vt 0.2500 0.0670 0.0000
vt 0.7500 0.0670 0.0000
vt 0.5000 0.5000 0.0000
# 28 texture coords

o 5fungo_sotto
g 5fungo_sotto
usemtl wire_088177027
s 16
f 1/1/1 2/2/2 3/3/3 4/4/4 
f 4/4/4 3/3/3 5/5/5 6/6/6 
f 6/6/6 5/5/5 7/7/7 8/8/8 
f 8/8/8 7/7/7 9/9/9 10/10/10 
f 10/10/10 9/9/9 11/11/11 12/12/12 
f 12/12/12 11/11/11 2/13/2 1/14/1 
f 2/2/2 13/15/13 14/16/14 3/3/3 
f 3/3/3 14/16/14 15/17/15 5/5/5 
f 5/5/5 15/17/15 16/18/16 7/7/7 
f 7/7/7 16/18/16 17/19/17 9/9/9 
f 9/9/9 17/19/17 18/20/18 11/11/11 
f 11/11/11 18/20/18 13/21/13 2/13/2 
s 8
f 13/22/13 13/22/19 14/23/20 14/23/14 
f 14/23/14 14/23/20 15/24/21 15/24/15 
f 15/24/15 15/24/21 16/25/21 16/25/16 
f 16/25/16 16/25/21 17/26/21 17/26/17 
f 17/26/17 17/26/21 18/27/20 18/27/18 
f 18/27/18 18/27/20 13/22/19 13/22/13 
s 4
f 13/22/19 19/28/19 14/23/20 
f 14/23/20 19/28/19 15/24/21 
f 15/24/21 19/28/19 16/25/21 
f 16/25/21 19/28/19 17/26/21 
f 17/26/21 19/28/19 18/27/20 
f 18/27/20 19/28/19 13/22/19 
s off
f 4/4/4 6/6/6 8/8/8 10/10/10 12/12/12 1/14/1 
# 19 polygons - 6 triangles

