# 3ds Max Wavefront OBJ Exporter v0.97b - (c)2007 guruware
# File Created: 10.07.2020 17:07:30

mtllib sotto fiammifero 1.mtl

#
# object 7fungo_sotto2
#

v  67.9185 0.0544 -0.0081
v  67.8367 0.0544 -0.0236
v  67.8367 0.0544 -0.0739
v  67.9185 0.0544 -0.0895
v  67.9691 0.0544 -0.0488
v  67.9904 0.5945 -0.0895
v  68.0410 0.5945 -0.0488
v  67.9086 0.5945 -0.0739
v  67.9086 0.5945 -0.0236
v  67.9904 0.5945 -0.0081
v  68.0004 1.7038 -0.0895
v  68.0510 1.7038 -0.0488
v  67.9186 1.7038 -0.0739
v  67.9186 1.7038 -0.0236
v  68.0004 1.7038 -0.0081
v  67.9185 2.1810 -0.0895
v  67.9691 2.1810 -0.0488
v  67.8367 2.1810 -0.0739
v  67.8367 2.1810 -0.0236
v  67.9185 2.1810 -0.0081
# 20 vertices

vn 0.2086 -0.6085 0.7656
vn -0.6864 -0.5545 0.4705
vn -0.6864 -0.5545 -0.4705
vn 0.2086 -0.6085 -0.7656
vn 0.7642 -0.6450 -0.0000
vn 0.3290 -0.0246 -0.9440
vn 0.9976 -0.0691 -0.0000
vn -0.7989 0.0571 -0.5987
vn -0.7990 0.0571 0.5987
vn 0.3290 -0.0246 0.9440
vn 0.3378 0.0295 -0.9408
vn 0.9970 0.0778 -0.0000
vn -0.7945 -0.0650 -0.6037
vn -0.7945 -0.0650 0.6038
vn 0.3378 0.0295 0.9408
vn 0.1974 0.6113 -0.7664
vn 0.7523 0.6588 -0.0000
vn -0.6963 0.5425 -0.4700
vn -0.6964 0.5423 0.4699
vn 0.1974 0.6113 0.7664
# 20 vertex normals

vt 0.2045 0.0000 -0.3820
vt 0.0674 0.0000 -1.2361
vt 0.5281 0.0000 -0.3820
vt 0.9500 0.0000 1.0000
vt 0.7500 0.0000 1.0000
vt 0.9500 0.3333 1.0000
vt 0.7500 0.3333 1.0000
vt -0.0500 0.0000 1.0000
vt 0.1500 0.0000 1.0000
vt 0.1500 0.3333 1.0000
vt -0.0500 0.3333 1.0000
vt 0.3500 0.0000 1.0000
vt 0.3500 0.3333 1.0000
vt 0.5500 0.0000 1.0000
vt 0.5500 0.3333 1.0000
vt 0.9500 0.6667 1.0000
vt 0.7500 0.6667 1.0000
vt 0.1500 0.6667 1.0000
vt -0.0500 0.6667 1.0000
vt 0.3500 0.6667 1.0000
vt 0.5500 0.6667 1.0000
vt 0.9500 1.0000 1.0000
vt 0.7500 1.0000 1.0000
vt 0.1500 1.0000 1.0000
vt -0.0500 1.0000 1.0000
vt 0.3500 1.0000 1.0000
vt 0.5500 1.0000 1.0000
vt 0.5281 1.0000 -0.3820
vt 0.0674 1.0000 -1.2361
# 29 texture coords

o 7fungo_sotto2
g 7fungo_sotto2
usemtl wire_225198087
s 1
f 1/1/1 2/2/2 3/3/3 4/4/4 5/5/5 
s 8
f 5/5/5 4/4/4 6/6/6 7/7/7 
f 4/8/4 3/9/3 8/10/8 6/11/6 
f 3/9/3 2/12/2 9/13/9 8/10/8 
f 2/12/2 1/14/1 10/15/10 9/13/9 
f 1/14/1 5/5/5 7/7/7 10/15/10 
f 7/7/7 6/6/6 11/16/11 12/17/12 
f 6/11/6 8/10/8 13/18/13 11/19/11 
f 8/10/8 9/13/9 14/20/14 13/18/13 
f 9/13/9 10/15/10 15/21/15 14/20/14 
f 10/15/10 7/7/7 12/17/12 15/21/15 
f 12/17/12 11/16/11 16/22/16 17/23/17 
f 11/19/11 13/18/13 18/24/18 16/25/16 
f 13/18/13 14/20/14 19/26/19 18/24/18 
f 14/20/14 15/21/15 20/27/20 19/26/19 
f 15/21/15 12/17/12 17/23/17 20/27/20 
s 1
f 20/27/20 17/23/17 16/22/16 18/28/18 19/29/19 
# 17 polygons

