# 3ds Max Wavefront OBJ Exporter v0.97b - (c)2007 guruware
# File Created: 10.07.2020 17:01:13

mtllib lungo stretto.mtl

#
# object 2Fungo_sotto1
#

v  49.2870 -0.1181 -0.0214
v  49.0672 -0.1181 -0.0929
v  49.0672 -0.1181 -0.3240
v  49.2870 -0.1181 -0.3954
v  49.4229 -0.1181 -0.2084
v  49.3789 0.8350 -0.3105
v  49.4531 0.8350 -0.2084
v  49.2589 0.8350 -0.2715
v  49.2589 0.8350 -0.1453
v  49.3789 0.8350 -0.1064
v  49.4030 1.7880 -0.3023
v  49.4712 1.7880 -0.2084
v  49.2926 1.7880 -0.2665
v  49.2926 1.7880 -0.1504
v  49.4030 1.7880 -0.1145
v  49.2594 2.7411 -0.3105
v  49.3336 2.7411 -0.2084
v  49.1394 2.7411 -0.2715
v  49.1394 2.7411 -0.1453
v  49.2594 2.7411 -0.1064
# 20 vertices

vn 0.2004 -0.5547 0.8076
vn -0.7322 -0.4724 0.4907
vn -0.7322 -0.4724 -0.4907
vn 0.2004 -0.5547 -0.8076
vn 0.7878 -0.6159 -0.0000
vn 0.3385 0.0401 -0.9401
vn 0.9991 -0.0431 -0.0000
vn -0.7801 0.1934 -0.5951
vn -0.7801 0.1934 0.5951
vn 0.3385 0.0401 0.9401
vn 0.3574 0.0427 -0.9330
vn 0.9950 0.0995 -0.0000
vn -0.7835 -0.0844 -0.6156
vn -0.7835 -0.0844 0.6156
vn 0.3574 0.0427 0.9330
vn 0.1730 0.6105 -0.7729
vn 0.7284 0.6851 -0.0000
vn -0.7209 0.5085 -0.4709
vn -0.7209 0.5085 0.4709
vn 0.1730 0.6105 0.7729
# 20 vertex normals

vt 0.5500 0.0000 1.0000
vt 0.3500 0.0000 1.0000
vt 0.1500 0.0000 1.0000
vt -0.0500 0.0000 1.0000
vt 0.5101 0.0000 -0.3820
vt 0.7500 0.0000 1.0000
vt 0.9500 0.0000 1.0000
vt 0.9500 0.3333 1.0000
vt 0.7500 0.3333 1.0000
vt 0.1500 0.3333 1.0000
vt -0.0500 0.3333 1.0000
vt 0.3500 0.3333 1.0000
vt 0.5500 0.3333 1.0000
vt 0.9500 0.6667 1.0000
vt 0.7500 0.6667 1.0000
vt 0.1500 0.6667 1.0000
vt -0.0500 0.6667 1.0000
vt 0.3500 0.6667 1.0000
vt 0.5500 0.6667 1.0000
vt 0.9500 1.0000 1.0000
vt 0.7500 1.0000 1.0000
vt 0.1500 1.0000 1.0000
vt -0.0500 1.0000 1.0000
vt 0.3500 1.0000 1.0000
vt 0.5500 1.0000 1.0000
vt 0.5281 1.0000 -0.3820
vt 0.0674 1.0000 -1.2361
# 27 texture coords

o 2Fungo_sotto1
g 2Fungo_sotto1
usemtl wire_086086086
s 1
f 1/1/1 2/2/2 3/3/3 4/4/4 5/5/5 
s 8
f 5/6/5 4/7/4 6/8/6 7/9/7 
f 4/4/4 3/3/3 8/10/8 6/11/6 
f 3/3/3 2/2/2 9/12/9 8/10/8 
f 2/2/2 1/1/1 10/13/10 9/12/9 
f 1/1/1 5/6/5 7/9/7 10/13/10 
f 7/9/7 6/8/6 11/14/11 12/15/12 
f 6/11/6 8/10/8 13/16/13 11/17/11 
f 8/10/8 9/12/9 14/18/14 13/16/13 
f 9/12/9 10/13/10 15/19/15 14/18/14 
f 10/13/10 7/9/7 12/15/12 15/19/15 
f 12/15/12 11/14/11 16/20/16 17/21/17 
f 11/17/11 13/16/13 18/22/18 16/23/16 
f 13/16/13 14/18/14 19/24/19 18/22/18 
f 14/18/14 15/19/15 20/25/20 19/24/19 
f 15/19/15 12/15/12 17/21/17 20/25/20 
s 1
f 20/25/20 17/21/17 16/20/16 18/26/18 19/27/19 
# 17 polygons

