# 3ds Max Wavefront OBJ Exporter v0.97b - (c)2007 guruware
# File Created: 10.07.2020 17:07:18

mtllib sotto fiammifero 2.mtl

#
# object 7fungo_sotto1
#

v  67.8566 0.0544 -0.0156
v  67.7898 0.0544 -0.0283
v  67.7898 0.0544 -0.0693
v  67.8566 0.0544 -0.0820
v  67.8979 0.0544 -0.0488
v  67.6539 0.4955 -0.0820
v  67.6952 0.4955 -0.0488
v  67.5871 0.4955 -0.0693
v  67.5871 0.4955 -0.0283
v  67.6539 0.4955 -0.0156
v  67.6132 1.0814 -0.0820
v  67.6545 1.0814 -0.0488
v  67.5464 1.0814 -0.0693
v  67.5464 1.0814 -0.0283
v  67.6132 1.0814 -0.0156
# 15 vertices

vn 0.3752 -0.5185 0.7684
vn -0.5154 -0.7149 0.4726
vn -0.5154 -0.7149 -0.4726
vn 0.3752 -0.5185 -0.7684
vn 0.9015 -0.4327 -0.0000
vn 0.2408 0.0470 -0.9694
vn 0.9641 0.2654 -0.0000
vn -0.8071 -0.2017 -0.5549
vn -0.8071 -0.2017 0.5549
vn 0.2408 0.0470 0.9694
vn 0.2851 0.0198 -0.9583
vn 0.9976 0.0693 0.0000
vn -0.8163 -0.0567 -0.5749
vn -0.8163 -0.0567 0.5749
vn 0.2851 0.0198 0.9583
# 15 vertex normals

vt 0.2045 0.0000 -0.3820
vt 0.0674 0.0000 -1.2361
vt 0.5281 0.0000 -0.3820
vt 0.9500 0.0000 1.0000
vt 0.7500 0.0000 1.0000
vt 0.9500 0.3333 1.0000
vt 0.7500 0.3333 1.0000
vt -0.0500 0.0000 1.0000
vt 0.1500 0.0000 1.0000
vt 0.1500 0.3333 1.0000
vt -0.0500 0.3333 1.0000
vt 0.3500 0.0000 1.0000
vt 0.3500 0.3333 1.0000
vt 0.5500 0.0000 1.0000
vt 0.5500 0.3333 1.0000
vt 0.9500 0.6667 1.0000
vt 0.7500 0.6667 1.0000
vt 0.1500 0.6667 1.0000
vt -0.0500 0.6667 1.0000
vt 0.3500 0.6667 1.0000
vt 0.5500 0.6667 1.0000
# 21 texture coords

o 7fungo_sotto1
g 7fungo_sotto1
usemtl wire_225198087
s 1
f 1/1/1 2/2/2 3/3/3 4/4/4 5/5/5 
s 8
f 5/5/5 4/4/4 6/6/6 7/7/7 
f 4/8/4 3/9/3 8/10/8 6/11/6 
f 3/9/3 2/12/2 9/13/9 8/10/8 
f 2/12/2 1/14/1 10/15/10 9/13/9 
f 1/14/1 5/5/5 7/7/7 10/15/10 
f 7/7/7 6/6/6 11/16/11 12/17/12 
f 6/11/6 8/10/8 13/18/13 11/19/11 
f 8/10/8 9/13/9 14/20/14 13/18/13 
f 9/13/9 10/15/10 15/21/15 14/20/14 
f 10/15/10 7/7/7 12/17/12 15/21/15 
# 11 polygons

