# 3ds Max Wavefront OBJ Exporter v0.97b - (c)2007 guruware
# File Created: 10.07.2020 17:09:14

mtllib sotto corno.mtl

#
# object Fungo_sotto2
#

v  73.1203 0.1162 0.1063
v  72.8855 0.1162 0.1063
v  72.7680 0.1162 -0.0971
v  72.8855 0.1162 -0.3005
v  73.1203 0.1162 -0.3005
v  73.2377 0.1162 -0.0971
v  73.8468 0.9588 -0.2877
v  73.9569 0.9588 -0.0971
v  73.6267 0.9588 -0.2877
v  73.5166 0.9588 -0.0971
v  73.6267 0.9588 0.0935
v  73.8468 0.9588 0.0935
v  73.8988 1.8015 -0.2000
v  73.9582 1.8015 -0.0971
v  73.7799 1.8015 -0.2000
v  73.7205 1.8015 -0.0971
v  73.7799 1.8015 0.0059
v  73.8988 1.8015 0.0059
v  73.7409 2.3916 -0.1801
v  73.7888 2.3916 -0.0971
v  73.6451 2.3916 -0.1801
v  73.5972 2.3916 -0.0971
v  73.6451 2.3916 -0.0141
v  73.7409 2.3916 -0.0141
v  73.2825 3.0224 -0.1829
v  73.3320 3.0224 -0.0971
v  73.1833 3.0224 -0.1829
v  73.1338 3.0224 -0.0971
v  73.1833 3.0224 -0.0113
v  73.2825 3.0224 -0.0113
# 30 vertices

vn 0.2123 -0.6927 0.6893
vn -0.5758 -0.4090 0.7080
vn -0.9440 -0.3301 0.0000
vn -0.5758 -0.4090 -0.7080
vn 0.2123 -0.6927 -0.6893
vn 0.5196 -0.8544 -0.0000
vn 0.5348 -0.1978 -0.8215
vn 0.9490 -0.3154 0.0000
vn -0.3942 0.2272 -0.8905
vn -0.8668 0.4986 0.0000
vn -0.3942 0.2272 0.8905
vn 0.5348 -0.1978 0.8215
vn 0.5371 0.1126 -0.8360
vn 0.9911 0.1328 -0.0000
vn -0.4531 0.0549 -0.8898
vn -0.9999 0.0169 -0.0000
vn -0.4531 0.0549 0.8898
vn 0.5371 0.1126 0.8360
vn 0.5011 0.2703 -0.8221
vn 0.9087 0.4174 -0.0000
vn -0.4299 -0.1715 -0.8865
vn -0.9003 -0.4352 0.0000
vn -0.4299 -0.1715 0.8865
vn 0.5011 0.2703 0.8221
vn 0.2330 0.6904 -0.6849
vn 0.5578 0.8300 0.0000
vn -0.5558 0.4432 -0.7034
vn -0.9305 0.3663 0.0000
vn -0.5558 0.4432 0.7034
vn 0.2330 0.6904 0.6849
# 30 vertex normals

vt 0.3333 0.0000 -0.0000
vt 0.0833 0.0000 -1.0000
vt 0.2500 0.0000 -1.0000
vt 0.6667 0.0000 0.0000
vt 0.9167 0.0000 1.0000
vt 0.7500 0.0000 1.0000
vt 0.9167 0.2500 1.0000
vt 0.7500 0.2500 1.0000
vt -0.0833 0.0000 1.0000
vt 0.0833 0.0000 1.0000
vt 0.0833 0.2500 1.0000
vt -0.0833 0.2500 1.0000
vt 0.2500 0.0000 1.0000
vt 0.2500 0.2500 1.0000
vt 0.4167 0.0000 1.0000
vt 0.4167 0.2500 1.0000
vt 0.5833 0.0000 1.0000
vt 0.5833 0.2500 1.0000
vt 0.9167 0.5000 1.0000
vt 0.7500 0.5000 1.0000
vt 0.0833 0.5000 1.0000
vt -0.0833 0.5000 1.0000
vt 0.2500 0.5000 1.0000
vt 0.4167 0.5000 1.0000
vt 0.5833 0.5000 1.0000
vt 0.9167 0.7500 1.0000
vt 0.7500 0.7500 1.0000
vt 0.0833 0.7500 1.0000
vt -0.0833 0.7500 1.0000
vt 0.2500 0.7500 1.0000
vt 0.4167 0.7500 1.0000
vt 0.5833 0.7500 1.0000
vt 0.9167 1.0000 1.0000
vt 0.7500 1.0000 1.0000
vt 0.0833 1.0000 1.0000
vt -0.0833 1.0000 1.0000
vt 0.2500 1.0000 1.0000
vt 0.4167 1.0000 1.0000
vt 0.5833 1.0000 1.0000
vt 0.6667 1.0000 -0.0000
vt 0.2500 1.0000 -1.0000
vt 0.0833 1.0000 -1.0000
# 42 texture coords

o Fungo_sotto2
g Fungo_sotto2
usemtl wire_228184153
s 1
f 1/1/1 2/2/2 3/3/3 4/4/4 5/5/5 6/6/6 
s 8
f 6/6/6 5/5/5 7/7/7 8/8/8 
f 5/9/5 4/10/4 9/11/9 7/12/7 
f 4/10/4 3/13/3 10/14/10 9/11/9 
f 3/13/3 2/15/2 11/16/11 10/14/10 
f 2/15/2 1/17/1 12/18/12 11/16/11 
f 1/17/1 6/6/6 8/8/8 12/18/12 
f 8/8/8 7/7/7 13/19/13 14/20/14 
f 7/12/7 9/11/9 15/21/15 13/22/13 
f 9/11/9 10/14/10 16/23/16 15/21/15 
f 10/14/10 11/16/11 17/24/17 16/23/16 
f 11/16/11 12/18/12 18/25/18 17/24/17 
f 12/18/12 8/8/8 14/20/14 18/25/18 
f 14/20/14 13/19/13 19/26/19 20/27/20 
f 13/22/13 15/21/15 21/28/21 19/29/19 
f 15/21/15 16/23/16 22/30/22 21/28/21 
f 16/23/16 17/24/17 23/31/23 22/30/22 
f 17/24/17 18/25/18 24/32/24 23/31/23 
f 18/25/18 14/20/14 20/27/20 24/32/24 
f 20/27/20 19/26/19 25/33/25 26/34/26 
f 19/29/19 21/28/21 27/35/27 25/36/25 
f 21/28/21 22/30/22 28/37/28 27/35/27 
f 22/30/22 23/31/23 29/38/29 28/37/28 
f 23/31/23 24/32/24 30/39/30 29/38/29 
f 24/32/24 20/27/20 26/34/26 30/39/30 
s 1
f 30/39/30 26/34/26 25/33/25 27/40/27 28/41/28 29/42/29 
# 26 polygons

