# 3ds Max Wavefront OBJ Exporter v0.97b - (c)2007 guruware
# File Created: 13.07.2020 15:34:54

mtllib Chioma tonda.mtl

#
# object Sphere005
#

v  -122.1724 70.9321 0.0829
v  -122.1724 69.4318 -7.4850
v  -125.9564 69.4318 -6.4711
v  -128.7264 69.4318 -3.7011
v  -129.7403 69.4318 0.0828
v  -128.7264 69.4318 3.8668
v  -125.9564 69.4318 6.6368
v  -122.1724 69.4318 7.6507
v  -118.3885 69.4318 6.6368
v  -115.6185 69.4318 3.8668
v  -114.6046 69.4318 0.0829
v  -115.6185 69.4318 -3.7011
v  -118.3885 69.4318 -6.4711
v  -122.1724 67.4884 -12.0349
v  -122.1724 64.2533 -16.4075
v  -130.4176 64.2533 -14.1982
v  -128.2313 67.4884 -10.4114
v  -136.4535 64.2533 -8.1623
v  -132.6667 67.4884 -5.9760
v  -138.6628 64.2533 0.0828
v  -134.2902 67.4884 0.0828
v  -136.4535 64.2533 8.3280
v  -132.6667 67.4884 6.1417
v  -130.4176 64.2533 14.3639
v  -128.2313 67.4884 10.5771
v  -122.1725 64.2533 16.5732
v  -122.1725 67.4884 12.2006
v  -113.9273 64.2533 14.3639
v  -116.1136 67.4884 10.5771
v  -107.8914 64.2533 8.3281
v  -111.6782 67.4884 6.1417
v  -105.6821 64.2533 0.0829
v  -110.0547 67.4884 0.0829
v  -107.8913 64.2533 -8.1623
v  -111.6782 67.4884 -5.9760
v  -113.9272 64.2533 -14.1982
v  -116.1136 67.4884 -10.4114
v  -122.1724 62.2098 -18.0023
v  -122.1724 58.9361 -19.1879
v  -131.8078 58.9361 -16.6061
v  -131.2150 62.2098 -15.5793
v  -138.8614 58.9361 -9.5525
v  -137.8346 62.2098 -8.9597
v  -141.4432 58.9361 0.0828
v  -140.2576 62.2098 0.0828
v  -138.8615 58.9361 9.7182
v  -137.8346 62.2098 9.1254
v  -131.8078 58.9361 16.7718
v  -131.2150 62.2098 15.7450
v  -122.1725 58.9361 19.3536
v  -122.1725 62.2098 18.1680
v  -112.5371 58.9361 16.7719
v  -113.1299 62.2098 15.7451
v  -105.4835 58.9361 9.7183
v  -106.5103 62.2098 9.1254
v  -102.9017 58.9361 0.0829
v  -104.0873 62.2098 0.0829
v  -105.4834 58.9361 -9.5525
v  -106.5102 62.2098 -8.9597
v  -112.5370 58.9361 -16.6061
v  -113.1299 62.2098 -15.5793
v  -122.1724 52.7583 -19.1879
v  -122.1724 49.4848 -18.0024
v  -131.2150 49.4848 -15.5794
v  -131.8078 52.7583 -16.6061
v  -137.8347 49.4848 -8.9598
v  -138.8614 52.7583 -9.5525
v  -140.2576 49.4848 0.0828
v  -141.4432 52.7583 0.0828
v  -137.8347 49.4848 9.1254
v  -138.8615 52.7583 9.7182
v  -131.2151 49.4848 15.7451
v  -131.8078 52.7583 16.7718
v  -122.1725 49.4848 18.1681
v  -122.1725 52.7583 19.3536
v  -113.1299 49.4848 15.7451
v  -112.5371 52.7583 16.7719
v  -106.5102 49.4848 9.1255
v  -105.4835 52.7583 9.7183
v  -104.0872 49.4848 0.0829
v  -102.9017 52.7583 0.0829
v  -106.5102 49.4848 -8.9597
v  -105.4834 52.7583 -9.5525
v  -113.1298 49.4848 -15.5794
v  -112.5370 52.7583 -16.6061
v  -122.1724 47.4409 -16.4074
v  -122.1724 44.2060 -12.0349
v  -128.2313 44.2060 -10.4114
v  -130.4176 47.4409 -14.1981
v  -132.6667 44.2060 -5.9760
v  -136.4534 47.4409 -8.1623
v  -134.2902 44.2060 0.0828
v  -138.6627 47.4409 0.0828
v  -132.6667 44.2060 6.1417
v  -136.4534 47.4409 8.3280
v  -128.2313 44.2060 10.5771
v  -130.4176 47.4409 14.3638
v  -122.1725 44.2060 12.2006
v  -122.1725 47.4409 16.5731
v  -116.1136 44.2060 10.5771
v  -113.9273 47.4409 14.3638
v  -111.6782 44.2060 6.1417
v  -107.8915 47.4409 8.3280
v  -110.0547 44.2060 0.0829
v  -105.6822 47.4409 0.0829
v  -111.6782 44.2060 -5.9760
v  -107.8915 47.4409 -8.1623
v  -116.1136 44.2060 -10.4114
v  -113.9273 47.4409 -14.1981
v  -122.1724 40.7623 0.0829
v  -125.9564 42.2625 -6.4711
v  -122.1724 42.2625 -7.4850
v  -128.7264 42.2625 -3.7011
v  -129.7403 42.2625 0.0828
v  -128.7264 42.2625 3.8668
v  -125.9564 42.2625 6.6368
v  -122.1724 42.2625 7.6507
v  -118.3885 42.2625 6.6368
v  -115.6185 42.2625 3.8668
v  -114.6046 42.2625 0.0829
v  -115.6185 42.2625 -3.7011
v  -118.3885 42.2625 -6.4711
v  -122.1724 55.8472 -19.7473
v  -132.0875 55.8472 -17.0906
v  -139.3459 55.8472 -9.8322
v  -142.0026 55.8472 0.0828
v  -139.3459 55.8472 9.9979
v  -132.0875 55.8472 17.2563
v  -122.1725 55.8472 19.9130
v  -112.2574 55.8472 17.2563
v  -104.9990 55.8472 9.9979
v  -102.3423 55.8472 0.0829
v  -104.9990 55.8472 -9.8322
v  -112.2574 55.8472 -17.0906
# 134 vertices

vn 0.0000 1.0000 -0.0000
vn 0.0000 0.9161 -0.4009
vn -0.2005 0.9161 -0.3472
vn -0.3472 0.9161 -0.2005
vn -0.4009 0.9161 -0.0000
vn -0.3472 0.9161 0.2005
vn -0.2005 0.9161 0.3472
vn -0.0000 0.9161 0.4009
vn 0.2005 0.9161 0.3472
vn 0.3472 0.9161 0.2005
vn 0.4009 0.9161 0.0000
vn 0.3472 0.9161 -0.2005
vn 0.2005 0.9161 -0.3472
vn 0.0000 0.7830 -0.6220
vn 0.0000 0.5985 -0.8011
vn -0.4005 0.5985 -0.6938
vn -0.3110 0.7830 -0.5387
vn -0.6938 0.5985 -0.4005
vn -0.5387 0.7830 -0.3110
vn -0.8011 0.5985 -0.0000
vn -0.6220 0.7830 -0.0000
vn -0.6938 0.5985 0.4005
vn -0.5387 0.7830 0.3110
vn -0.4005 0.5985 0.6938
vn -0.3110 0.7830 0.5387
vn -0.0000 0.5985 0.8011
vn -0.0000 0.7830 0.6220
vn 0.4005 0.5985 0.6938
vn 0.3110 0.7830 0.5387
vn 0.6938 0.5985 0.4005
vn 0.5387 0.7830 0.3110
vn 0.8011 0.5985 0.0000
vn 0.6220 0.7830 0.0000
vn 0.6938 0.5985 -0.4005
vn 0.5387 0.7830 -0.3110
vn 0.4005 0.5985 -0.6938
vn 0.3110 0.7830 -0.5387
vn 0.0000 0.3753 -0.9269
vn 0.0000 0.1942 -0.9810
vn -0.4905 0.1942 -0.8495
vn -0.4635 0.3753 -0.8027
vn -0.8495 0.1942 -0.4905
vn -0.8027 0.3753 -0.4635
vn -0.9810 0.1942 -0.0000
vn -0.9269 0.3753 -0.0000
vn -0.8495 0.1942 0.4905
vn -0.8027 0.3753 0.4635
vn -0.4905 0.1942 0.8495
vn -0.4635 0.3753 0.8027
vn -0.0000 0.1942 0.9810
vn -0.0000 0.3753 0.9269
vn 0.4905 0.1942 0.8495
vn 0.4635 0.3753 0.8027
vn 0.8495 0.1942 0.4905
vn 0.8027 0.3753 0.4635
vn 0.9810 0.1942 0.0000
vn 0.9269 0.3753 0.0000
vn 0.8495 0.1942 -0.4905
vn 0.8027 0.3753 -0.4635
vn 0.4905 0.1942 -0.8495
vn 0.4635 0.3753 -0.8027
vn 0.0000 -0.1942 -0.9810
vn 0.0000 -0.3753 -0.9269
vn -0.4635 -0.3753 -0.8027
vn -0.4905 -0.1942 -0.8495
vn -0.8027 -0.3753 -0.4635
vn -0.8495 -0.1942 -0.4905
vn -0.9269 -0.3753 -0.0000
vn -0.9810 -0.1942 -0.0000
vn -0.8027 -0.3753 0.4635
vn -0.8495 -0.1942 0.4905
vn -0.4635 -0.3753 0.8027
vn -0.4905 -0.1942 0.8495
vn -0.0000 -0.3753 0.9269
vn -0.0000 -0.1942 0.9810
vn 0.4635 -0.3753 0.8027
vn 0.4905 -0.1942 0.8495
vn 0.8027 -0.3753 0.4635
vn 0.8495 -0.1942 0.4905
vn 0.9269 -0.3753 0.0000
vn 0.9810 -0.1942 0.0000
vn 0.8027 -0.3753 -0.4635
vn 0.8495 -0.1942 -0.4905
vn 0.4635 -0.3753 -0.8027
vn 0.4905 -0.1942 -0.8495
vn 0.0000 -0.5985 -0.8011
vn 0.0000 -0.7830 -0.6220
vn -0.3110 -0.7830 -0.5387
vn -0.4005 -0.5985 -0.6938
vn -0.5387 -0.7830 -0.3110
vn -0.6938 -0.5985 -0.4005
vn -0.6220 -0.7830 -0.0000
vn -0.8011 -0.5985 -0.0000
vn -0.5387 -0.7830 0.3110
vn -0.6938 -0.5985 0.4005
vn -0.3110 -0.7830 0.5387
vn -0.4005 -0.5985 0.6938
vn -0.0000 -0.7830 0.6220
vn -0.0000 -0.5985 0.8011
vn 0.3110 -0.7830 0.5387
vn 0.4005 -0.5985 0.6938
vn 0.5387 -0.7830 0.3110
vn 0.6938 -0.5985 0.4005
vn 0.6220 -0.7830 0.0000
vn 0.8011 -0.5985 0.0000
vn 0.5387 -0.7830 -0.3110
vn 0.6938 -0.5985 -0.4005
vn 0.3110 -0.7830 -0.5387
vn 0.4005 -0.5985 -0.6938
vn -0.0000 -1.0000 -0.0000
vn -0.2005 -0.9161 -0.3472
vn 0.0000 -0.9161 -0.4009
vn -0.3472 -0.9161 -0.2005
vn -0.4009 -0.9161 -0.0000
vn -0.3472 -0.9161 0.2005
vn -0.2005 -0.9161 0.3472
vn -0.0000 -0.9161 0.4009
vn 0.2005 -0.9161 0.3472
vn 0.3472 -0.9161 0.2005
vn 0.4009 -0.9161 0.0000
vn 0.3472 -0.9161 -0.2005
vn 0.2005 -0.9161 -0.3472
vn 0.0000 0.0000 -1.0000
vn -0.5000 -0.0000 -0.8660
vn -0.8660 -0.0000 -0.5000
vn -1.0000 0.0000 -0.0000
vn -0.8660 0.0000 0.5000
vn -0.5000 0.0000 0.8660
vn -0.0000 0.0000 1.0000
vn 0.5000 0.0000 0.8660
vn 0.8660 -0.0000 0.5000
vn 1.0000 0.0000 0.0000
vn 0.8660 0.0000 -0.5000
vn 0.5000 0.0000 -0.8660
# 134 vertex normals

vt 0.0000 1.0000 0.0000
vt 0.0000 0.8763 0.0000
vt 0.0619 0.8763 0.0000
vt 0.0833 1.0000 0.0000
vt 0.1452 0.8763 0.0000
vt 0.1667 1.0000 0.0000
vt 0.2285 0.8763 0.0000
vt 0.2500 1.0000 0.0000
vt 0.3119 0.8763 0.0000
vt 0.3333 1.0000 0.0000
vt 0.3952 0.8763 0.0000
vt 0.4167 1.0000 0.0000
vt 0.4785 0.8763 0.0000
vt 0.5000 1.0000 0.0000
vt 0.5619 0.8763 0.0000
vt 0.5833 1.0000 0.0000
vt 0.6452 0.8763 0.0000
vt 0.6667 1.0000 0.0000
vt 0.7285 0.8763 0.0000
vt 0.7500 1.0000 0.0000
vt 0.8119 0.8763 0.0000
vt 0.8333 1.0000 0.0000
vt 0.8952 0.8763 0.0000
vt 0.9167 1.0000 0.0000
vt 0.9785 0.8763 0.0000
vt 0.0000 0.7904 0.0000
vt 0.0000 0.6927 0.0000
vt 0.0833 0.6927 0.0000
vt 0.0833 0.7904 0.0000
vt 0.1667 0.6927 0.0000
vt 0.1667 0.7904 0.0000
vt 0.2500 0.6927 0.0000
vt 0.2500 0.7904 0.0000
vt 0.3333 0.6927 0.0000
vt 0.3333 0.7904 0.0000
vt 0.4167 0.6927 0.0000
vt 0.4167 0.7904 0.0000
vt 0.5000 0.6927 0.0000
vt 0.5000 0.7904 0.0000
vt 0.5833 0.6927 0.0000
vt 0.5833 0.7904 0.0000
vt 0.6667 0.6927 0.0000
vt 0.6667 0.7904 0.0000
vt 0.7500 0.6927 0.0000
vt 0.7500 0.7904 0.0000
vt 0.8333 0.6927 0.0000
vt 0.8333 0.7904 0.0000
vt 0.9167 0.6927 0.0000
vt 0.9167 0.7904 0.0000
vt 1.0000 0.6927 0.0000
vt 1.0000 0.7904 0.0000
vt 0.0000 0.6406 0.0000
vt 0.0000 0.5683 0.0000
vt 0.0833 0.5683 0.0000
vt 0.0833 0.6406 0.0000
vt 0.1667 0.5683 0.0000
vt 0.1667 0.6406 0.0000
vt 0.2500 0.5683 0.0000
vt 0.2500 0.6406 0.0000
vt 0.3333 0.5683 0.0000
vt 0.3333 0.6406 0.0000
vt 0.4167 0.5683 0.0000
vt 0.4167 0.6406 0.0000
vt 0.5000 0.5683 0.0000
vt 0.5000 0.6406 0.0000
vt 0.5833 0.5683 0.0000
vt 0.5833 0.6406 0.0000
vt 0.6667 0.5683 0.0000
vt 0.6667 0.6406 0.0000
vt 0.7500 0.5683 0.0000
vt 0.7500 0.6406 0.0000
vt 0.8333 0.5683 0.0000
vt 0.8333 0.6406 0.0000
vt 0.9167 0.5683 0.0000
vt 0.9167 0.6406 0.0000
vt 1.0000 0.5683 0.0000
vt 1.0000 0.6406 0.0000
vt 0.0000 0.4317 0.0000
vt 0.0000 0.3594 0.0000
vt 0.0833 0.3594 0.0000
vt 0.0833 0.4317 0.0000
vt 0.1667 0.3594 0.0000
vt 0.1667 0.4317 0.0000
vt 0.2500 0.3594 0.0000
vt 0.2500 0.4317 0.0000
vt 0.3333 0.3594 0.0000
vt 0.3333 0.4317 0.0000
vt 0.4167 0.3594 0.0000
vt 0.4167 0.4317 0.0000
vt 0.5000 0.3594 0.0000
vt 0.5000 0.4317 0.0000
vt 0.5833 0.3594 0.0000
vt 0.5833 0.4317 0.0000
vt 0.6667 0.3594 0.0000
vt 0.6667 0.4317 0.0000
vt 0.7500 0.3594 0.0000
vt 0.7500 0.4317 0.0000
vt 0.8333 0.3594 0.0000
vt 0.8333 0.4317 0.0000
vt 0.9167 0.3594 0.0000
vt 0.9167 0.4317 0.0000
vt 1.0000 0.3594 0.0000
vt 1.0000 0.4317 0.0000
vt 0.0000 0.3073 0.0000
vt 0.0000 0.2096 0.0000
vt 0.0833 0.2096 0.0000
vt 0.0833 0.3073 0.0000
vt 0.1667 0.2096 0.0000
vt 0.1667 0.3073 0.0000
vt 0.2500 0.2096 0.0000
vt 0.2500 0.3073 0.0000
vt 0.3333 0.2096 0.0000
vt 0.3333 0.3073 0.0000
vt 0.4167 0.2096 0.0000
vt 0.4167 0.3073 0.0000
vt 0.5000 0.2096 0.0000
vt 0.5000 0.3073 0.0000
vt 0.5833 0.2096 0.0000
vt 0.5833 0.3073 0.0000
vt 0.6667 0.2096 0.0000
vt 0.6667 0.3073 0.0000
vt 0.7500 0.2096 0.0000
vt 0.7500 0.3073 0.0000
vt 0.8333 0.2096 0.0000
vt 0.8333 0.3073 0.0000
vt 0.9167 0.2096 0.0000
vt 0.9167 0.3073 0.0000
vt 1.0000 0.2096 0.0000
vt 1.0000 0.3073 0.0000
vt 0.0000 0.0000 0.0000
vt 0.0619 0.1237 0.0000
vt 0.0000 0.1237 0.0000
vt 0.0833 0.0000 0.0000
vt 0.1452 0.1237 0.0000
vt 0.1667 0.0000 0.0000
vt 0.2285 0.1237 0.0000
vt 0.2500 0.0000 0.0000
vt 0.3119 0.1237 0.0000
vt 0.3333 0.0000 0.0000
vt 0.3952 0.1237 0.0000
vt 0.4167 0.0000 0.0000
vt 0.4785 0.1237 0.0000
vt 0.5000 0.0000 0.0000
vt 0.5619 0.1237 0.0000
vt 0.5833 0.0000 0.0000
vt 0.6452 0.1237 0.0000
vt 0.6667 0.0000 0.0000
vt 0.7285 0.1237 0.0000
vt 0.7500 0.0000 0.0000
vt 0.8119 0.1237 0.0000
vt 0.8333 0.0000 0.0000
vt 0.8952 0.1237 0.0000
vt 0.9167 0.0000 0.0000
vt 0.9785 0.1237 0.0000
vt 0.0000 0.5000 0.0000
vt 0.0833 0.5000 0.0000
vt 0.1667 0.5000 0.0000
vt 0.2500 0.5000 0.0000
vt 0.3333 0.5000 0.0000
vt 0.4167 0.5000 0.0000
vt 0.5000 0.5000 0.0000
vt 0.5833 0.5000 0.0000
vt 0.6667 0.5000 0.0000
vt 0.7500 0.5000 0.0000
vt 0.8333 0.5000 0.0000
vt 0.9167 0.5000 0.0000
vt 1.0000 0.5000 0.0000
# 167 texture coords

o Sphere005
g Sphere005
usemtl wire_166229229
s 1
f 1/1/1 2/2/2 3/3/3 
f 1/4/1 3/3/3 4/5/4 
f 1/6/1 4/5/4 5/7/5 
f 1/8/1 5/7/5 6/9/6 
f 1/10/1 6/9/6 7/11/7 
f 1/12/1 7/11/7 8/13/8 
f 1/14/1 8/13/8 9/15/9 
f 1/16/1 9/15/9 10/17/10 
f 1/18/1 10/17/10 11/19/11 
f 1/20/1 11/19/11 12/21/12 
f 1/22/1 12/21/12 13/23/13 
f 1/24/1 13/23/13 2/25/2 
f 14/26/14 15/27/15 16/28/16 17/29/17 
f 17/29/17 16/28/16 18/30/18 19/31/19 
f 19/31/19 18/30/18 20/32/20 21/33/21 
f 21/33/21 20/32/20 22/34/22 23/35/23 
f 23/35/23 22/34/22 24/36/24 25/37/25 
f 25/37/25 24/36/24 26/38/26 27/39/27 
f 27/39/27 26/38/26 28/40/28 29/41/29 
f 29/41/29 28/40/28 30/42/30 31/43/31 
f 31/43/31 30/42/30 32/44/32 33/45/33 
f 33/45/33 32/44/32 34/46/34 35/47/35 
f 35/47/35 34/46/34 36/48/36 37/49/37 
f 37/49/37 36/48/36 15/50/15 14/51/14 
f 38/52/38 39/53/39 40/54/40 41/55/41 
f 41/55/41 40/54/40 42/56/42 43/57/43 
f 43/57/43 42/56/42 44/58/44 45/59/45 
f 45/59/45 44/58/44 46/60/46 47/61/47 
f 47/61/47 46/60/46 48/62/48 49/63/49 
f 49/63/49 48/62/48 50/64/50 51/65/51 
f 51/65/51 50/64/50 52/66/52 53/67/53 
f 53/67/53 52/66/52 54/68/54 55/69/55 
f 55/69/55 54/68/54 56/70/56 57/71/57 
f 57/71/57 56/70/56 58/72/58 59/73/59 
f 59/73/59 58/72/58 60/74/60 61/75/61 
f 61/75/61 60/74/60 39/76/39 38/77/38 
f 62/78/62 63/79/63 64/80/64 65/81/65 
f 65/81/65 64/80/64 66/82/66 67/83/67 
f 67/83/67 66/82/66 68/84/68 69/85/69 
f 69/85/69 68/84/68 70/86/70 71/87/71 
f 71/87/71 70/86/70 72/88/72 73/89/73 
f 73/89/73 72/88/72 74/90/74 75/91/75 
f 75/91/75 74/90/74 76/92/76 77/93/77 
f 77/93/77 76/92/76 78/94/78 79/95/79 
f 79/95/79 78/94/78 80/96/80 81/97/81 
f 81/97/81 80/96/80 82/98/82 83/99/83 
f 83/99/83 82/98/82 84/100/84 85/101/85 
f 85/101/85 84/100/84 63/102/63 62/103/62 
f 86/104/86 87/105/87 88/106/88 89/107/89 
f 89/107/89 88/106/88 90/108/90 91/109/91 
f 91/109/91 90/108/90 92/110/92 93/111/93 
f 93/111/93 92/110/92 94/112/94 95/113/95 
f 95/113/95 94/112/94 96/114/96 97/115/97 
f 97/115/97 96/114/96 98/116/98 99/117/99 
f 99/117/99 98/116/98 100/118/100 101/119/101 
f 101/119/101 100/118/100 102/120/102 103/121/103 
f 103/121/103 102/120/102 104/122/104 105/123/105 
f 105/123/105 104/122/104 106/124/106 107/125/107 
f 107/125/107 106/124/106 108/126/108 109/127/109 
f 109/127/109 108/126/108 87/128/87 86/129/86 
f 110/130/110 111/131/111 112/132/112 
f 110/133/110 113/134/113 111/131/111 
f 110/135/110 114/136/114 113/134/113 
f 110/137/110 115/138/115 114/136/114 
f 110/139/110 116/140/116 115/138/115 
f 110/141/110 117/142/117 116/140/116 
f 110/143/110 118/144/118 117/142/117 
f 110/145/110 119/146/119 118/144/118 
f 110/147/110 120/148/120 119/146/119 
f 110/149/110 121/150/121 120/148/120 
f 110/151/110 122/152/122 121/150/121 
f 110/153/110 112/154/112 122/152/122 
f 15/27/15 38/52/38 41/55/41 16/28/16 
f 16/28/16 41/55/41 43/57/43 18/30/18 
f 18/30/18 43/57/43 45/59/45 20/32/20 
f 20/32/20 45/59/45 47/61/47 22/34/22 
f 22/34/22 47/61/47 49/63/49 24/36/24 
f 24/36/24 49/63/49 51/65/51 26/38/26 
f 26/38/26 51/65/51 53/67/53 28/40/28 
f 28/40/28 53/67/53 55/69/55 30/42/30 
f 30/42/30 55/69/55 57/71/57 32/44/32 
f 32/44/32 57/71/57 59/73/59 34/46/34 
f 34/46/34 59/73/59 61/75/61 36/48/36 
f 36/48/36 61/75/61 38/77/38 15/50/15 
f 39/53/39 123/155/123 124/156/124 40/54/40 
f 40/54/40 124/156/124 125/157/125 42/56/42 
f 42/56/42 125/157/125 126/158/126 44/58/44 
f 44/58/44 126/158/126 127/159/127 46/60/46 
f 46/60/46 127/159/127 128/160/128 48/62/48 
f 48/62/48 128/160/128 129/161/129 50/64/50 
f 50/64/50 129/161/129 130/162/130 52/66/52 
f 52/66/52 130/162/130 131/163/131 54/68/54 
f 54/68/54 131/163/131 132/164/132 56/70/56 
f 56/70/56 132/164/132 133/165/133 58/72/58 
f 58/72/58 133/165/133 134/166/134 60/74/60 
f 60/74/60 134/166/134 123/167/123 39/76/39 
f 123/155/123 62/78/62 65/81/65 124/156/124 
f 124/156/124 65/81/65 67/83/67 125/157/125 
f 125/157/125 67/83/67 69/85/69 126/158/126 
f 126/158/126 69/85/69 71/87/71 127/159/127 
f 127/159/127 71/87/71 73/89/73 128/160/128 
f 128/160/128 73/89/73 75/91/75 129/161/129 
f 129/161/129 75/91/75 77/93/77 130/162/130 
f 130/162/130 77/93/77 79/95/79 131/163/131 
f 131/163/131 79/95/79 81/97/81 132/164/132 
f 132/164/132 81/97/81 83/99/83 133/165/133 
f 133/165/133 83/99/83 85/101/85 134/166/134 
f 134/166/134 85/101/85 62/103/62 123/167/123 
f 63/79/63 86/104/86 89/107/89 64/80/64 
f 64/80/64 89/107/89 91/109/91 66/82/66 
f 66/82/66 91/109/91 93/111/93 68/84/68 
f 68/84/68 93/111/93 95/113/95 70/86/70 
f 70/86/70 95/113/95 97/115/97 72/88/72 
f 72/88/72 97/115/97 99/117/99 74/90/74 
f 74/90/74 99/117/99 101/119/101 76/92/76 
f 76/92/76 101/119/101 103/121/103 78/94/78 
f 78/94/78 103/121/103 105/123/105 80/96/80 
f 80/96/80 105/123/105 107/125/107 82/98/82 
f 82/98/82 107/125/107 109/127/109 84/100/84 
f 84/100/84 109/127/109 86/129/86 63/102/63 
f 2/2/2 14/26/14 17/29/17 3/3/3 
f 3/3/3 17/29/17 19/31/19 4/5/4 
f 4/5/4 19/31/19 21/33/21 5/7/5 
f 5/7/5 21/33/21 23/35/23 6/9/6 
f 6/9/6 23/35/23 25/37/25 7/11/7 
f 7/11/7 25/37/25 27/39/27 8/13/8 
f 8/13/8 27/39/27 29/41/29 9/15/9 
f 9/15/9 29/41/29 31/43/31 10/17/10 
f 10/17/10 31/43/31 33/45/33 11/19/11 
f 11/19/11 33/45/33 35/47/35 12/21/12 
f 12/21/12 35/47/35 37/49/37 13/23/13 
f 13/23/13 37/49/37 14/51/14 2/25/2 
f 87/105/87 112/132/112 111/131/111 88/106/88 
f 88/106/88 111/131/111 113/134/113 90/108/90 
f 90/108/90 113/134/113 114/136/114 92/110/92 
f 92/110/92 114/136/114 115/138/115 94/112/94 
f 94/112/94 115/138/115 116/140/116 96/114/96 
f 96/114/96 116/140/116 117/142/117 98/116/98 
f 98/116/98 117/142/117 118/144/118 100/118/100 
f 100/118/100 118/144/118 119/146/119 102/120/102 
f 102/120/102 119/146/119 120/148/120 104/122/104 
f 104/122/104 120/148/120 121/150/121 106/124/106 
f 106/124/106 121/150/121 122/152/122 108/126/108 
f 108/126/108 122/152/122 112/154/112 87/128/87 
# 120 polygons - 24 triangles

