# 3ds Max Wavefront OBJ Exporter v0.97b - (c)2007 guruware
# File Created: 10.07.2020 16:44:50

mtllib Tronco piccolo.mtl

#
# object 4Tronco001
#

v  -61.3440 0.0000 1.3718
v  -62.6822 0.0000 1.9260
v  -64.0203 0.0000 1.3718
v  -64.5745 0.0000 0.0336
v  -64.0203 0.0000 -1.3045
v  -62.6822 0.0000 -1.8587
v  -61.3440 0.0000 -1.3045
v  -60.7898 0.0000 0.0336
v  -61.6569 6.8894 -0.9916
v  -61.2322 6.8894 0.0336
v  -62.6822 6.8894 -1.4163
v  -63.7074 6.8894 -0.9916
v  -64.1321 6.8894 0.0336
v  -63.7074 6.8894 1.0589
v  -62.6822 6.8894 1.4836
v  -61.6569 6.8894 1.0589
# 16 vertices

vn 0.5822 -0.5675 0.5822
vn -0.0000 -0.5675 0.8234
vn -0.5822 -0.5675 0.5822
vn -0.8234 -0.5675 0.0000
vn -0.5822 -0.5675 -0.5822
vn -0.0000 -0.5675 -0.8234
vn 0.5822 -0.5675 -0.5822
vn 0.8234 -0.5675 -0.0000
vn 0.5111 0.6910 -0.5111
vn 0.7228 0.6910 0.0000
vn -0.0000 0.6910 -0.7228
vn -0.5111 0.6910 -0.5111
vn -0.7228 0.6910 0.0000
vn -0.5111 0.6910 0.5111
vn -0.0000 0.6910 0.7228
vn 0.5111 0.6910 0.5111
# 16 vertex normals

vt 0.4786 0.0000 0.4142
vt 0.2197 0.0000 -0.4142
vt 0.1250 0.0000 -1.0000
vt 0.2500 0.0000 -1.0000
vt 0.5214 0.0000 -0.4142
vt 0.7803 0.0000 0.4142
vt 0.8750 0.0000 1.0000
vt 0.7500 0.0000 1.0000
vt 0.8750 1.0000 1.0000
vt 0.7500 1.0000 1.0000
vt -0.1250 0.0000 1.0000
vt 0.0000 0.0000 1.0000
vt 0.0000 1.0000 1.0000
vt -0.1250 1.0000 1.0000
vt 0.1250 0.0000 1.0000
vt 0.1250 1.0000 1.0000
vt 0.2500 0.0000 1.0000
vt 0.2500 1.0000 1.0000
vt 0.3750 0.0000 1.0000
vt 0.3750 1.0000 1.0000
vt 0.5000 0.0000 1.0000
vt 0.5000 1.0000 1.0000
vt 0.6250 0.0000 1.0000
vt 0.6250 1.0000 1.0000
vt 0.7803 1.0000 0.4142
vt 0.5214 1.0000 -0.4142
vt 0.2500 1.0000 -1.0000
vt 0.1250 1.0000 -1.0000
vt 0.2197 1.0000 -0.4142
# 29 texture coords

o 4Tronco001
g 4Tronco001
usemtl wire_153228214
s 1
f 1/1/1 2/2/2 3/3/3 4/4/4 5/5/5 6/6/6 7/7/7 8/8/8 
s 8
f 8/8/8 7/7/7 9/9/9 10/10/10 
f 7/11/7 6/12/6 11/13/11 9/14/9 
f 6/12/6 5/15/5 12/16/12 11/13/11 
f 5/15/5 4/17/4 13/18/13 12/16/12 
f 4/17/4 3/19/3 14/20/14 13/18/13 
f 3/19/3 2/21/2 15/22/15 14/20/14 
f 2/21/2 1/23/1 16/24/16 15/22/15 
f 1/23/1 8/8/8 10/10/10 16/24/16 
s 1
f 16/24/16 10/10/10 9/9/9 11/25/11 12/26/12 13/27/13 14/28/14 15/29/15 
# 10 polygons

