# 3ds Max Wavefront OBJ Exporter v0.97b - (c)2007 guruware
# File Created: 13.07.2020 15:46:58

mtllib 1 fungo testa grande.mtl

#
# object 7fungo_sopra_2
#

v  67.9476 3.1453 -0.0488
v  68.0317 3.1225 -0.0488
v  68.0311 3.1170 -0.0882
v  67.9926 3.1225 -0.1104
v  68.0815 3.0638 -0.0488
v  68.0664 3.0624 -0.1054
v  68.0179 3.0638 -0.1489
v  67.9497 3.1170 -0.1374
v  67.9047 3.1225 -0.1256
v  67.9497 3.0624 -0.1760
v  67.8751 3.0638 -0.1736
v  67.8483 3.1170 -0.1199
v  67.8342 3.1225 -0.0830
v  67.8042 3.0624 -0.1508
v  67.7605 3.0638 -0.1043
v  67.8031 3.1170 -0.0488
v  67.8342 3.1225 -0.0146
v  67.7394 3.0624 -0.0488
v  67.7605 3.0638 0.0068
v  67.8483 3.1170 0.0223
v  67.9047 3.1225 0.0281
v  67.8042 3.0624 0.0532
v  67.8751 3.0638 0.0760
v  67.9497 3.1170 0.0399
v  67.9926 3.1225 0.0128
v  67.9497 3.0624 0.0784
v  68.0179 3.0638 0.0513
v  68.0311 3.1170 -0.0093
v  68.0664 3.0624 0.0078
v  68.1245 2.9429 -0.0488
v  68.1027 2.9429 -0.1174
v  68.1572 2.7804 -0.0488
v  68.1321 2.7804 -0.1278
v  68.0663 2.7804 -0.1920
v  68.0456 2.9429 -0.1731
v  67.9613 2.9429 -0.2029
v  67.9691 2.7804 -0.2264
v  67.8619 2.7804 -0.2274
v  67.8682 2.9429 -0.2038
v  67.7849 2.9429 -0.1724
v  67.7659 2.7804 -0.1912
v  67.6980 2.7804 -0.1283
v  67.7260 2.9429 -0.1178
v  67.7064 2.9429 -0.0488
v  67.6754 2.7804 -0.0488
v  67.6980 2.7804 0.0307
v  67.7260 2.9429 0.0202
v  67.7849 2.9429 0.0748
v  67.7659 2.7804 0.0936
v  67.8619 2.7804 0.1298
v  67.8682 2.9429 0.1062
v  67.9613 2.9429 0.1054
v  67.9691 2.7804 0.1288
v  68.0663 2.7804 0.0944
v  68.0456 2.9429 0.0755
v  68.1027 2.9429 0.0198
v  68.1321 2.7804 0.0303
v  68.1759 2.5967 -0.0488
v  68.1468 2.5967 -0.1403
v  68.1842 2.4350 -0.0488
v  68.1524 2.4350 -0.1488
v  68.0691 2.4350 -0.2300
v  68.0705 2.5967 -0.2146
v  67.9581 2.5967 -0.2545
v  67.9462 2.4350 -0.2735
v  67.8106 2.4350 -0.2747
v  67.8339 2.5967 -0.2556
v  67.7227 2.5967 -0.2137
v  67.6891 2.4350 -0.2290
v  67.6033 2.4350 -0.1493
v  67.6441 2.5967 -0.1408
v  67.6180 2.5967 -0.0488
v  67.5746 2.4350 -0.0488
v  67.6033 2.4350 0.0518
v  67.6441 2.5967 0.0432
v  67.7227 2.5967 0.1162
v  67.6891 2.4350 0.1314
v  67.8106 2.4350 0.1771
v  67.8339 2.5967 0.1580
v  67.9581 2.5967 0.1569
v  67.9462 2.4350 0.1759
v  68.0691 2.4350 0.1324
v  68.0705 2.5967 0.1170
v  68.1468 2.5967 0.0427
v  68.1524 2.4350 0.0512
v  68.1859 2.3382 -0.0488
v  68.1546 2.3382 -0.1472
v  68.1753 2.2816 -0.0488
v  68.1466 2.2816 -0.1391
v  68.0713 2.2816 -0.2124
v  68.0727 2.3382 -0.2270
v  67.9518 2.3382 -0.2699
v  67.9603 2.2816 -0.2517
v  67.8378 2.2816 -0.2528
v  67.8183 2.3382 -0.2711
v  67.6988 2.3382 -0.2261
v  67.7281 2.2816 -0.2115
v  67.6506 2.2816 -0.1396
v  67.6143 2.3382 -0.1477
v  67.5862 2.3382 -0.0488
v  67.6247 2.2816 -0.0488
v  67.6506 2.2816 0.0420
v  67.6143 2.3382 0.0501
v  67.6988 2.3382 0.1285
v  67.7281 2.2816 0.1140
v  67.8378 2.2816 0.1553
v  67.8183 2.3382 0.1735
v  67.9518 2.3382 0.1723
v  67.9603 2.2816 0.1542
v  68.0713 2.2816 0.1149
v  68.0727 2.3382 0.1295
v  68.1546 2.3382 0.0496
v  68.1466 2.2816 0.0415
v  68.1466 2.2401 -0.0488
v  68.1214 2.2401 -0.1282
v  68.0935 2.2213 -0.0488
v  68.0502 2.2147 -0.1022
v  68.0221 2.2213 -0.1612
v  68.0553 2.2401 -0.1927
v  67.9576 2.2401 -0.2272
v  67.9401 2.2147 -0.1688
v  67.8618 2.2213 -0.1889
v  67.8499 2.2401 -0.2282
v  67.7534 2.2401 -0.1919
v  67.8027 2.2147 -0.1450
v  67.7332 2.2213 -0.1111
v  67.6853 2.2401 -0.1286
v  67.6625 2.2401 -0.0488
v  67.7416 2.2147 -0.0488
v  67.7332 2.2213 0.0136
v  67.6853 2.2401 0.0311
v  67.7534 2.2401 0.0943
v  67.8027 2.2147 0.0475
v  67.8618 2.2213 0.0913
v  67.8499 2.2401 0.1306
v  67.9576 2.2401 0.1297
v  67.9401 2.2147 0.0712
v  68.0221 2.2213 0.0636
v  68.0553 2.2401 0.0951
v  68.1214 2.2401 0.0306
v  68.0502 2.2147 0.0046
v  67.9039 2.2063 -0.0488
# 142 vertices

vn 0.0474 0.9989 0.0000
vn 0.5295 0.8483 -0.0000
vn 0.5603 0.7842 -0.2668
vn 0.3100 0.8694 -0.3847
vn 0.8711 0.4911 -0.0000
vn 0.7995 0.4553 -0.3917
vn 0.5320 0.5110 -0.6751
vn 0.1344 0.8160 -0.5622
vn -0.0943 0.9058 -0.4131
vn 0.1826 0.4808 -0.8576
vn -0.1908 0.5467 -0.8153
vn -0.3268 0.8481 -0.4171
vn -0.3399 0.9263 -0.1629
vn -0.5461 0.5040 -0.6691
vn -0.7419 0.5685 -0.3555
vn -0.5100 0.8602 0.0000
vn -0.3399 0.9263 0.1629
vn -0.8590 0.5120 0.0000
vn -0.7419 0.5685 0.3555
vn -0.3268 0.8481 0.4171
vn -0.0943 0.9058 0.4131
vn -0.5461 0.5040 0.6691
vn -0.1908 0.5467 0.8153
vn 0.1344 0.8160 0.5622
vn 0.3100 0.8694 0.3847
vn 0.1826 0.4808 0.8576
vn 0.5320 0.5110 0.6751
vn 0.5603 0.7842 0.2668
vn 0.7995 0.4553 0.3917
vn 0.9644 0.2644 -0.0000
vn 0.8718 0.2535 -0.4192
vn 0.9889 0.1483 -0.0000
vn 0.8919 0.1522 -0.4258
vn 0.6200 0.1667 -0.7667
vn 0.6024 0.2606 -0.7545
vn 0.2170 0.2437 -0.9453
vn 0.2259 0.1855 -0.9563
vn -0.2096 0.2083 -0.9553
vn -0.2146 0.2522 -0.9436
vn -0.6058 0.2313 -0.7613
vn -0.6026 0.2269 -0.7651
vn -0.8727 0.2415 -0.4243
vn -0.8733 0.2454 -0.4209
vn -0.9742 0.2257 0.0000
vn -0.9695 0.2451 0.0000
vn -0.8727 0.2415 0.4243
vn -0.8733 0.2454 0.4209
vn -0.6058 0.2313 0.7613
vn -0.6026 0.2269 0.7651
vn -0.2096 0.2083 0.9553
vn -0.2146 0.2522 0.9436
vn 0.2170 0.2437 0.9453
vn 0.2259 0.1855 0.9563
vn 0.6200 0.1667 0.7667
vn 0.6024 0.2606 0.7545
vn 0.8718 0.2535 0.4192
vn 0.8919 0.1522 0.4258
vn 0.9971 0.0760 -0.0000
vn 0.8978 0.0855 -0.4321
vn 0.9994 0.0344 -0.0000
vn 0.8982 0.0361 -0.4382
vn 0.6150 0.0419 -0.7874
vn 0.6199 0.1156 -0.7761
vn 0.2207 0.1564 -0.9627
vn 0.2113 0.0492 -0.9762
vn -0.2341 0.0574 -0.9705
vn -0.2165 0.2026 -0.9550
vn -0.6042 0.2416 -0.7593
vn -0.6291 0.0639 -0.7747
vn -0.9012 0.0683 -0.4281
vn -0.8673 0.2693 -0.4186
vn -0.9606 0.2780 0.0000
vn -0.9976 0.0697 0.0000
vn -0.9012 0.0683 0.4281
vn -0.8673 0.2693 0.4186
vn -0.6042 0.2416 0.7593
vn -0.6291 0.0639 0.7747
vn -0.2341 0.0574 0.9705
vn -0.2165 0.2026 0.9550
vn 0.2207 0.1564 0.9627
vn 0.2113 0.0492 0.9762
vn 0.6150 0.0419 0.7874
vn 0.6199 0.1156 0.7761
vn 0.8978 0.0855 0.4321
vn 0.8982 0.0361 0.4382
vn 0.9966 -0.0826 -0.0000
vn 0.8947 -0.0969 -0.4359
vn 0.9274 -0.3741 -0.0000
vn 0.8334 -0.3865 -0.3950
vn 0.5733 -0.4254 -0.7003
vn 0.6109 -0.1399 -0.7792
vn 0.2102 -0.1954 -0.9579
vn 0.2075 -0.4770 -0.8541
vn -0.1754 -0.5322 -0.8282
vn -0.2225 -0.2534 -0.9414
vn -0.5984 -0.3000 -0.7429
vn -0.5025 -0.5766 -0.6442
vn -0.7141 -0.6064 -0.3498
vn -0.8515 -0.3300 -0.4073
vn -0.9402 -0.3405 0.0000
vn -0.7883 -0.6152 0.0000
vn -0.7141 -0.6064 0.3498
vn -0.8515 -0.3301 0.4074
vn -0.5984 -0.3000 0.7429
vn -0.5025 -0.5766 0.6442
vn -0.1754 -0.5322 0.8282
vn -0.2225 -0.2534 0.9414
vn 0.2102 -0.1954 0.9579
vn 0.2075 -0.4770 0.8541
vn 0.5733 -0.4254 0.7003
vn 0.6109 -0.1399 0.7792
vn 0.8947 -0.0969 0.4359
vn 0.8334 -0.3865 0.3950
vn 0.6354 -0.7722 -0.0000
vn 0.5606 -0.7839 -0.2668
vn 0.2750 -0.9614 -0.0000
vn 0.1543 -0.9852 -0.0743
vn 0.1715 -0.9614 -0.2150
vn 0.3934 -0.7815 -0.4842
vn 0.1394 -0.7999 -0.5837
vn 0.0381 -0.9852 -0.1670
vn -0.0612 -0.9614 -0.2681
vn -0.1268 -0.8011 -0.5850
vn -0.3551 -0.8181 -0.4524
vn -0.1068 -0.9852 -0.1339
vn -0.2478 -0.9614 -0.1193
vn -0.5204 -0.8154 -0.2536
vn -0.5643 -0.8256 0.0000
vn -0.1713 -0.9852 0.0000
vn -0.2478 -0.9614 0.1193
vn -0.5204 -0.8154 0.2536
vn -0.3551 -0.8181 0.4524
vn -0.1068 -0.9852 0.1339
vn -0.0612 -0.9614 0.2681
vn -0.1268 -0.8011 0.5850
vn 0.1394 -0.7999 0.5837
vn 0.0381 -0.9852 0.1670
vn 0.1715 -0.9614 0.2150
vn 0.3934 -0.7815 0.4842
vn 0.5606 -0.7839 0.2668
vn 0.1543 -0.9852 0.0743
vn 0.0000 -1.0000 -0.0000
# 142 vertex normals

vt 0.5000 0.5000 0.0000
vt 0.6301 0.5000 0.0000
vt 0.6353 0.5652 0.0000
vt 0.5811 0.6018 0.0000
vt 0.7231 0.5000 0.0000
vt 0.7046 0.5985 0.0000
vt 0.6391 0.6744 0.0000
vt 0.5334 0.6464 0.0000
vt 0.4710 0.6269 0.0000
vt 0.5505 0.7214 0.0000
vt 0.4504 0.7175 0.0000
vt 0.4064 0.6174 0.0000
vt 0.3827 0.5565 0.0000
vt 0.3584 0.6775 0.0000
vt 0.2990 0.5968 0.0000
vt 0.3498 0.5000 0.0000
vt 0.3827 0.4435 0.0000
vt 0.2729 0.5000 0.0000
vt 0.2990 0.4032 0.0000
vt 0.4064 0.3826 0.0000
vt 0.4710 0.3731 0.0000
vt 0.3584 0.3225 0.0000
vt 0.4504 0.2825 0.0000
vt 0.5334 0.3536 0.0000
vt 0.5811 0.3982 0.0000
vt 0.5505 0.2786 0.0000
vt 0.6391 0.3256 0.0000
vt 0.6353 0.4348 0.0000
vt 0.7046 0.4015 0.0000
vt 0.8094 0.5000 0.0000
vt 0.7772 0.6335 0.0000
vt 0.8791 0.5000 0.0000
vt 0.8397 0.6636 0.0000
vt 0.7364 0.7964 0.0000
vt 0.6929 0.7419 0.0000
vt 0.5685 0.8000 0.0000
vt 0.5839 0.8676 0.0000
vt 0.4156 0.8696 0.0000
vt 0.4312 0.8016 0.0000
vt 0.3082 0.7406 0.0000
vt 0.2649 0.7948 0.0000
vt 0.1584 0.6645 0.0000
vt 0.2213 0.6342 0.0000
vt 0.1923 0.5000 0.0000
vt 0.1229 0.5000 0.0000
vt 0.1584 0.3355 0.0000
vt 0.2213 0.3658 0.0000
vt 0.3082 0.2594 0.0000
vt 0.2649 0.2052 0.0000
vt 0.4156 0.1304 0.0000
vt 0.4312 0.1984 0.0000
vt 0.5685 0.2000 0.0000
vt 0.5839 0.1324 0.0000
vt 0.7364 0.2036 0.0000
vt 0.6929 0.2581 0.0000
vt 0.7772 0.3665 0.0000
vt 0.8397 0.3364 0.0000
vt 0.9226 0.5000 0.0000
vt 0.8787 0.6824 0.0000
vt 1.0000 0.5000 0.0000
vt 0.9059 0.6955 0.0000
vt 0.8117 0.8909 0.0000
vt 0.7635 0.8304 0.0000
vt 0.5935 0.9098 0.0000
vt 0.6002 0.9392 0.0000
vt 0.3887 0.9875 0.0000
vt 0.4060 0.9120 0.0000
vt 0.2379 0.8286 0.0000
vt 0.2191 0.8522 0.0000
vt 0.0495 0.7169 0.0000
vt 0.1193 0.6834 0.0000
vt 0.0797 0.5000 0.0000
vt 0.0495 0.5000 0.0000
vt 0.0495 0.2831 0.0000
vt 0.1193 0.3166 0.0000
vt 0.2379 0.1714 0.0000
vt 0.2191 0.1478 0.0000
vt 0.3887 0.0125 0.0000
vt 0.4060 0.0880 0.0000
vt 0.5935 0.0902 0.0000
vt 0.6002 0.0608 0.0000
vt 0.8117 0.1091 0.0000
vt 0.7635 0.1696 0.0000
vt 0.8787 0.3176 0.0000
vt 0.9059 0.3045 0.0000
vt 0.0000 1.0000 0.0000
vt 0.0000 0.5000 0.0000
vt 0.0714 0.5000 0.0000
vt 0.0714 1.0000 0.0000
vt 0.0000 0.0000 0.0000
vt 0.0714 0.0000 0.0000
vt 0.1429 0.0000 0.0000
vt 0.1429 0.5000 0.0000
vt 0.1429 1.0000 0.0000
vt 0.2143 0.5000 0.0000
vt 0.2143 1.0000 0.0000
vt 0.2143 0.0000 0.0000
vt 0.2857 0.0000 0.0000
vt 0.2857 0.5000 0.0000
vt 0.2857 1.0000 0.0000
vt 0.3571 0.5000 0.0000
vt 0.3571 1.0000 0.0000
vt 0.3571 0.0000 0.0000
vt 0.4286 0.0000 0.0000
vt 0.4286 0.5000 0.0000
vt 0.4286 1.0000 0.0000
vt 0.5000 1.0000 0.0000
vt 0.5000 0.0000 0.0000
vt 0.5714 0.0000 0.0000
vt 0.5714 0.5000 0.0000
vt 0.5714 1.0000 0.0000
vt 0.6429 0.5000 0.0000
vt 0.6429 1.0000 0.0000
vt 0.6429 0.0000 0.0000
vt 0.7143 0.0000 0.0000
vt 0.7143 0.5000 0.0000
vt 0.7143 1.0000 0.0000
vt 0.7857 0.5000 0.0000
vt 0.7857 1.0000 0.0000
vt 0.7857 0.0000 0.0000
vt 0.8571 0.0000 0.0000
vt 0.8571 0.5000 0.0000
vt 0.8571 1.0000 0.0000
vt 0.9286 0.5000 0.0000
vt 0.9286 1.0000 0.0000
vt 0.9286 0.0000 0.0000
vt 1.0000 0.0000 0.0000
vt 1.0000 1.0000 0.0000
vt 0.8440 0.5000 0.0000
vt 0.7704 0.6302 0.0000
vt 0.7145 0.7690 0.0000
vt 0.5668 0.7926 0.0000
vt 0.4234 0.8354 0.0000
vt 0.3129 0.7347 0.0000
vt 0.1900 0.6493 0.0000
vt 0.1999 0.5000 0.0000
vt 0.1900 0.3507 0.0000
vt 0.3129 0.2653 0.0000
vt 0.4234 0.1646 0.0000
vt 0.5668 0.2074 0.0000
vt 0.7145 0.2310 0.0000
vt 0.7704 0.3698 0.0000
# 142 texture coords

o 7fungo_sopra_2
g 7fungo_sopra_2
usemtl wire_088199225
s 4
f 1/1/1 2/2/2 3/3/3 4/4/4 
f 5/5/5 6/6/6 3/3/3 2/2/2 
f 7/7/7 4/4/4 3/3/3 6/6/6 
f 1/1/1 4/4/4 8/8/8 9/9/9 
f 7/7/7 10/10/10 8/8/8 4/4/4 
f 11/11/11 9/9/9 8/8/8 10/10/10 
f 1/1/1 9/9/9 12/12/12 13/13/13 
f 11/11/11 14/14/14 12/12/12 9/9/9 
f 15/15/15 13/13/13 12/12/12 14/14/14 
f 1/1/1 13/13/13 16/16/16 17/17/17 
f 15/15/15 18/18/18 16/16/16 13/13/13 
f 19/19/19 17/17/17 16/16/16 18/18/18 
f 1/1/1 17/17/17 20/20/20 21/21/21 
f 19/19/19 22/22/22 20/20/20 17/17/17 
f 23/23/23 21/21/21 20/20/20 22/22/22 
f 1/1/1 21/21/21 24/24/24 25/25/25 
f 23/23/23 26/26/26 24/24/24 21/21/21 
f 27/27/27 25/25/25 24/24/24 26/26/26 
f 1/1/1 25/25/25 28/28/28 2/2/2 
f 27/27/27 29/29/29 28/28/28 25/25/25 
f 5/5/5 2/2/2 28/28/28 29/29/29 
f 5/5/5 30/30/30 31/31/31 6/6/6 
f 32/32/32 33/33/33 31/31/31 30/30/30 
f 34/34/34 35/35/35 31/31/31 33/33/33 
f 7/7/7 6/6/6 31/31/31 35/35/35 
f 7/7/7 35/35/35 36/36/36 10/10/10 
f 34/34/34 37/37/37 36/36/36 35/35/35 
f 38/38/38 39/39/39 36/36/36 37/37/37 
f 11/11/11 10/10/10 36/36/36 39/39/39 
f 11/11/11 39/39/39 40/40/40 14/14/14 
f 38/38/38 41/41/41 40/40/40 39/39/39 
f 42/42/42 43/43/43 40/40/40 41/41/41 
f 15/15/15 14/14/14 40/40/40 43/43/43 
f 15/15/15 43/43/43 44/44/44 18/18/18 
f 42/42/42 45/45/45 44/44/44 43/43/43 
f 46/46/46 47/47/47 44/44/44 45/45/45 
f 19/19/19 18/18/18 44/44/44 47/47/47 
f 19/19/19 47/47/47 48/48/48 22/22/22 
f 46/46/46 49/49/49 48/48/48 47/47/47 
f 50/50/50 51/51/51 48/48/48 49/49/49 
f 23/23/23 22/22/22 48/48/48 51/51/51 
f 23/23/23 51/51/51 52/52/52 26/26/26 
f 50/50/50 53/53/53 52/52/52 51/51/51 
f 54/54/54 55/55/55 52/52/52 53/53/53 
f 27/27/27 26/26/26 52/52/52 55/55/55 
f 27/27/27 55/55/55 56/56/56 29/29/29 
f 54/54/54 57/57/57 56/56/56 55/55/55 
f 32/32/32 30/30/30 56/56/56 57/57/57 
f 5/5/5 29/29/29 56/56/56 30/30/30 
f 32/32/32 58/58/58 59/59/59 33/33/33 
f 60/60/60 61/61/61 59/59/59 58/58/58 
f 62/62/62 63/63/63 59/59/59 61/61/61 
f 34/34/34 33/33/33 59/59/59 63/63/63 
f 34/34/34 63/63/63 64/64/64 37/37/37 
f 62/62/62 65/65/65 64/64/64 63/63/63 
f 66/66/66 67/67/67 64/64/64 65/65/65 
f 38/38/38 37/37/37 64/64/64 67/67/67 
f 38/38/38 67/67/67 68/68/68 41/41/41 
f 66/66/66 69/69/69 68/68/68 67/67/67 
f 70/70/70 71/71/71 68/68/68 69/69/69 
f 42/42/42 41/41/41 68/68/68 71/71/71 
f 42/42/42 71/71/71 72/72/72 45/45/45 
f 70/70/70 73/73/73 72/72/72 71/71/71 
f 74/74/74 75/75/75 72/72/72 73/73/73 
f 46/46/46 45/45/45 72/72/72 75/75/75 
f 46/46/46 75/75/75 76/76/76 49/49/49 
f 74/74/74 77/77/77 76/76/76 75/75/75 
f 78/78/78 79/79/79 76/76/76 77/77/77 
f 50/50/50 49/49/49 76/76/76 79/79/79 
f 50/50/50 79/79/79 80/80/80 53/53/53 
f 78/78/78 81/81/81 80/80/80 79/79/79 
f 82/82/82 83/83/83 80/80/80 81/81/81 
f 54/54/54 53/53/53 80/80/80 83/83/83 
f 54/54/54 83/83/83 84/84/84 57/57/57 
f 82/82/82 85/85/85 84/84/84 83/83/83 
f 60/60/60 58/58/58 84/84/84 85/85/85 
f 32/32/32 57/57/57 84/84/84 58/58/58 
f 60/86/60 86/87/86 87/88/87 61/89/61 
f 88/90/88 89/91/89 87/88/87 86/87/86 
f 90/92/90 91/93/91 87/88/87 89/91/89 
f 62/94/62 61/89/61 87/88/87 91/93/91 
f 62/94/62 91/93/91 92/95/92 65/96/65 
f 90/92/90 93/97/93 92/95/92 91/93/91 
f 94/98/94 95/99/95 92/95/92 93/97/93 
f 66/100/66 65/96/65 92/95/92 95/99/95 
f 66/100/66 95/99/95 96/101/96 69/102/69 
f 94/98/94 97/103/97 96/101/96 95/99/95 
f 98/104/98 99/105/99 96/101/96 97/103/97 
f 70/106/70 69/102/69 96/101/96 99/105/99 
f 70/106/70 99/105/99 100/1/100 73/107/73 
f 98/104/98 101/108/101 100/1/100 99/105/99 
f 102/109/102 103/110/103 100/1/100 101/108/101 
f 74/111/74 73/107/73 100/1/100 103/110/103 
f 74/111/74 103/110/103 104/112/104 77/113/77 
f 102/109/102 105/114/105 104/112/104 103/110/103 
f 106/115/106 107/116/107 104/112/104 105/114/105 
f 78/117/78 77/113/77 104/112/104 107/116/107 
f 78/117/78 107/116/107 108/118/108 81/119/81 
f 106/115/106 109/120/109 108/118/108 107/116/107 
f 110/121/110 111/122/111 108/118/108 109/120/109 
f 82/123/82 81/119/81 108/118/108 111/122/111 
f 82/123/82 111/122/111 112/124/112 85/125/85 
f 110/121/110 113/126/113 112/124/112 111/122/111 
f 88/127/88 86/60/86 112/124/112 113/126/113 
f 60/128/60 85/125/85 112/124/112 86/60/86 
f 88/60/88 114/58/114 115/59/115 89/61/89 
f 116/129/116 117/130/117 115/59/115 114/58/114 
f 118/131/118 119/63/119 115/59/115 117/130/117 
f 90/62/90 89/61/89 115/59/115 119/63/119 
f 90/62/90 119/63/119 120/64/120 93/65/93 
f 118/131/118 121/132/121 120/64/120 119/63/119 
f 122/133/122 123/67/123 120/64/120 121/132/121 
f 94/66/94 93/65/93 120/64/120 123/67/123 
f 94/66/94 123/67/123 124/68/124 97/69/97 
f 122/133/122 125/134/125 124/68/124 123/67/123 
f 126/135/126 127/71/127 124/68/124 125/134/125 
f 98/70/98 97/69/97 124/68/124 127/71/127 
f 98/70/98 127/71/127 128/72/128 101/73/101 
f 126/135/126 129/136/129 128/72/128 127/71/127 
f 130/137/130 131/75/131 128/72/128 129/136/129 
f 102/74/102 101/73/101 128/72/128 131/75/131 
f 102/74/102 131/75/131 132/76/132 105/77/105 
f 130/137/130 133/138/133 132/76/132 131/75/131 
f 134/139/134 135/79/135 132/76/132 133/138/133 
f 106/78/106 105/77/105 132/76/132 135/79/135 
f 106/78/106 135/79/135 136/80/136 109/81/109 
f 134/139/134 137/140/137 136/80/136 135/79/135 
f 138/141/138 139/83/139 136/80/136 137/140/137 
f 110/82/110 109/81/109 136/80/136 139/83/139 
f 110/82/110 139/83/139 140/84/140 113/85/113 
f 138/141/138 141/142/141 140/84/140 139/83/139 
f 116/129/116 114/58/114 140/84/140 141/142/141 
f 88/60/88 113/85/113 140/84/140 114/58/114 
s off
f 116/129/116 141/142/141 142/1/142 117/130/117 
f 138/141/138 137/140/137 142/1/142 141/142/141 
f 134/139/134 133/138/133 142/1/142 137/140/137 
f 130/137/130 129/136/129 142/1/142 133/138/133 
f 126/135/126 125/134/125 142/1/142 129/136/129 
f 122/133/122 121/132/121 142/1/142 125/134/125 
f 118/131/118 117/130/117 142/1/142 121/132/121 
# 140 polygons

