# 3ds Max Wavefront OBJ Exporter v0.97b - (c)2007 guruware
# File Created: 10.07.2020 17:06:56

mtllib testa fiammifero 1.mtl

#
# object 7fungo_sopra_2
#

v  67.9613 3.1611 -0.0488
v  68.1036 3.0949 -0.0488
v  68.0284 3.0949 -0.1671
v  67.8595 3.0949 -0.1964
v  67.7241 3.0949 -0.1145
v  67.7241 3.0949 0.0169
v  67.8595 3.0949 0.0988
v  68.0284 3.0949 0.0696
v  68.1890 2.7909 -0.0488
v  68.0899 2.7909 -0.2048
v  67.8672 2.7909 -0.2434
v  67.6887 2.7909 -0.1354
v  67.6887 2.7909 0.0378
v  67.8672 2.7909 0.1458
v  68.0899 2.7909 0.1073
v  68.2209 2.4025 -0.0488
v  68.0874 2.4025 -0.2589
v  67.7876 2.4025 -0.3108
v  67.5472 2.4025 -0.1654
v  67.5472 2.4025 0.0678
v  67.7876 2.4025 0.2132
v  68.0874 2.4025 0.1613
v  68.2134 2.2740 -0.0488
v  68.0969 2.2740 -0.2323
v  67.8351 2.2740 -0.2776
v  67.6251 2.2740 -0.1506
v  67.6251 2.2740 0.0530
v  67.8351 2.2740 0.1800
v  68.0969 2.2740 0.1347
v  68.1303 2.2063 -0.0488
v  68.0451 2.2063 -0.1830
v  67.8536 2.2063 -0.2161
v  67.7000 2.2063 -0.1233
v  67.7000 2.2063 0.0257
v  67.8536 2.2063 0.1186
v  68.0451 2.2063 0.0854
# 36 vertices

vn 0.1044 0.9945 0.0000
vn 0.8032 0.5957 -0.0000
vn 0.4825 0.6024 -0.6359
vn -0.1975 0.6036 -0.7724
vn -0.7259 0.5979 -0.3400
vn -0.7259 0.5979 0.3400
vn -0.1975 0.6036 0.7724
vn 0.4825 0.6024 0.6359
vn 0.9850 0.1725 -0.0000
vn 0.6312 0.1879 -0.7526
vn -0.1868 0.2241 -0.9565
vn -0.8653 0.2540 -0.4320
vn -0.8653 0.2540 0.4320
vn -0.1868 0.2241 0.9565
vn 0.6312 0.1879 0.7526
vn 0.9999 0.0117 -0.0000
vn 0.5885 -0.0175 -0.8083
vn -0.2685 -0.0642 -0.9611
vn -0.9058 -0.0870 -0.4147
vn -0.9058 -0.0870 0.4147
vn -0.2685 -0.0642 0.9611
vn 0.5885 -0.0175 0.8083
vn 0.9098 -0.4151 -0.0000
vn 0.5840 -0.4575 -0.6706
vn -0.1396 -0.5568 -0.8188
vn -0.6883 -0.6339 -0.3527
vn -0.6883 -0.6339 0.3527
vn -0.1396 -0.5568 0.8188
vn 0.5840 -0.4575 0.6706
vn 0.4143 -0.9101 -0.0000
vn 0.2583 -0.9101 -0.3239
vn -0.0922 -0.9101 -0.4040
vn -0.3733 -0.9101 -0.1798
vn -0.3733 -0.9101 0.1798
vn -0.0922 -0.9101 0.4040
vn 0.2583 -0.9101 0.3239
# 36 vertex normals

vt 0.5000 0.5000 0.0000
vt 0.7500 0.5000 0.0000
vt 0.6559 0.6955 0.0000
vt 0.4444 0.7437 0.0000
vt 0.2748 0.6085 0.0000
vt 0.2748 0.3915 0.0000
vt 0.4444 0.2563 0.0000
vt 0.6559 0.3045 0.0000
vt 0.9330 0.5000 0.0000
vt 0.7700 0.8385 0.0000
vt 0.4036 0.9222 0.0000
vt 0.1099 0.6879 0.0000
vt 0.1099 0.3121 0.0000
vt 0.4036 0.0778 0.0000
vt 0.7700 0.1615 0.0000
vt 1.0000 0.5000 0.0000
vt 0.8117 0.8909 0.0000
vt 0.3887 0.9875 0.0000
vt 0.0495 0.7169 0.0000
vt 0.0495 0.2831 0.0000
vt 0.3887 0.0125 0.0000
vt 0.8117 0.1091 0.0000
vt 0.0000 1.0000 0.0000
vt 0.0000 0.0000 0.0000
vt 0.1429 0.0000 0.0000
vt 0.1429 1.0000 0.0000
vt 0.2857 0.0000 0.0000
vt 0.2857 1.0000 0.0000
vt 0.4286 0.0000 0.0000
vt 0.4286 1.0000 0.0000
vt 0.5714 0.0000 0.0000
vt 0.5714 1.0000 0.0000
vt 0.7143 0.0000 0.0000
vt 0.7143 1.0000 0.0000
vt 0.8571 0.0000 0.0000
vt 0.8571 1.0000 0.0000
vt 1.0000 0.0000 0.0000
vt 1.0000 1.0000 0.0000
# 38 texture coords

o 7fungo_sopra_2
g 7fungo_sopra_2
usemtl wire_088199225
s 4
f 1/1/1 2/2/2 3/3/3 
f 1/1/1 3/3/3 4/4/4 
f 1/1/1 4/4/4 5/5/5 
f 1/1/1 5/5/5 6/6/6 
f 1/1/1 6/6/6 7/7/7 
f 1/1/1 7/7/7 8/8/8 
f 1/1/1 8/8/8 2/2/2 
f 2/2/2 9/9/9 10/10/10 3/3/3 
f 3/3/3 10/10/10 11/11/11 4/4/4 
f 4/4/4 11/11/11 12/12/12 5/5/5 
f 5/5/5 12/12/12 13/13/13 6/6/6 
f 6/6/6 13/13/13 14/14/14 7/7/7 
f 7/7/7 14/14/14 15/15/15 8/8/8 
f 8/8/8 15/15/15 9/9/9 2/2/2 
f 9/9/9 16/16/16 17/17/17 10/10/10 
f 10/10/10 17/17/17 18/18/18 11/11/11 
f 11/11/11 18/18/18 19/19/19 12/12/12 
f 12/12/12 19/19/19 20/20/20 13/13/13 
f 13/13/13 20/20/20 21/21/21 14/14/14 
f 14/14/14 21/21/21 22/22/22 15/15/15 
f 15/15/15 22/22/22 16/16/16 9/9/9 
f 16/23/16 23/24/23 24/25/24 17/26/17 
f 17/26/17 24/25/24 25/27/25 18/28/18 
f 18/28/18 25/27/25 26/29/26 19/30/19 
f 19/30/19 26/29/26 27/31/27 20/32/20 
f 20/32/20 27/31/27 28/33/28 21/34/21 
f 21/34/21 28/33/28 29/35/29 22/36/22 
f 22/36/22 29/35/29 23/37/23 16/38/16 
f 23/16/23 30/9/30 31/10/31 24/17/24 
f 24/17/24 31/10/31 32/11/32 25/18/25 
f 25/18/25 32/11/32 33/12/33 26/19/26 
f 26/19/26 33/12/33 34/13/34 27/20/27 
f 27/20/27 34/13/34 35/14/35 28/21/28 
f 28/21/28 35/14/35 36/15/36 29/22/29 
f 29/22/29 36/15/36 30/9/30 23/16/23 
s off
f 30/9/30 36/15/36 35/14/35 34/13/34 33/12/33 32/11/32 31/10/31 
# 29 polygons - 7 triangles

