# 3ds Max Wavefront OBJ Exporter v0.97b - (c)2007 guruware
# File Created: 13.07.2020 15:45:30

mtllib 2 fungo testa.mtl

#
# object 3Fungo_sopra
#

v  62.9303 2.0825 0.5632
v  62.4859 2.0825 0.6732
v  62.4859 2.0825 -0.2066
v  63.2478 2.0825 0.2333
v  62.0414 2.0825 0.5632
v  61.7239 2.0825 0.2333
v  61.5969 2.0825 -0.2066
v  61.7239 2.0825 -0.6465
v  62.0414 2.0825 -0.9765
v  62.4859 2.0825 -1.0865
v  62.9303 2.0825 -0.9765
v  63.2478 2.0825 -0.6465
v  63.3748 2.0825 -0.2066
v  63.1640 2.2014 -0.5982
v  63.2770 2.2014 -0.2066
v  62.8815 2.2014 -0.8918
v  62.8363 2.3738 -0.8136
v  63.0867 2.3738 -0.5535
v  63.1868 2.3738 -0.2066
v  62.4859 2.2014 -0.9897
v  62.0903 2.2014 -0.8918
v  62.1354 2.3738 -0.8136
v  62.4859 2.3738 -0.9003
v  61.8077 2.2014 -0.5982
v  61.6947 2.2014 -0.2066
v  61.7850 2.3738 -0.2066
v  61.8851 2.3738 -0.5535
v  61.8077 2.2014 0.1849
v  62.0903 2.2014 0.4785
v  62.1354 2.3738 0.4004
v  61.8851 2.3738 0.1402
v  62.4859 2.2014 0.5764
v  62.8815 2.2014 0.4785
v  62.8363 2.3738 0.4004
v  62.4859 2.3738 0.4871
v  63.1640 2.2014 0.1849
v  63.0867 2.3738 0.1402
v  63.0222 2.6533 -0.5163
v  63.1116 2.6533 -0.2066
v  62.7987 2.6533 -0.7485
v  62.7618 2.9461 -0.6845
v  62.9588 2.9461 -0.4797
v  63.0377 2.9461 -0.2066
v  62.4859 2.6533 -0.8259
v  62.1730 2.6533 -0.7485
v  62.2100 2.9461 -0.6845
v  62.4859 2.9461 -0.7527
v  61.9496 2.6533 -0.5163
v  61.8602 2.6533 -0.2066
v  61.9341 2.9461 -0.2066
v  62.0129 2.9461 -0.4797
v  61.9496 2.6533 0.1030
v  62.1730 2.6533 0.3352
v  62.2100 2.9461 0.2712
v  62.0129 2.9461 0.0664
v  62.4859 2.6533 0.4126
v  62.7987 2.6533 0.3352
v  62.7618 2.9461 0.2712
v  62.4859 2.9461 0.3395
v  63.0222 2.6533 0.1030
v  62.9588 2.9461 0.0664
v  62.8849 3.1585 -0.4370
v  62.9514 3.1585 -0.2066
v  62.7186 3.1585 -0.6098
v  62.6606 3.3034 -0.5093
v  62.7854 3.3034 -0.3796
v  62.8354 3.3034 -0.2066
v  62.4859 3.1585 -0.6673
v  62.2531 3.1585 -0.6098
v  62.3078 3.3021 -0.5112
v  62.4859 3.3034 -0.5525
v  62.0869 3.1585 -0.4370
v  62.0204 3.1585 -0.2066
v  62.1297 3.3007 -0.2066
v  62.1730 3.2981 -0.3873
v  62.0869 3.1585 0.0237
v  62.2531 3.1585 0.1965
v  62.3078 3.3020 0.0980
v  62.1730 3.2981 -0.0260
v  62.4859 3.1585 0.2541
v  62.7186 3.1585 0.1965
v  62.6606 3.3034 0.0960
v  62.4859 3.3034 0.1393
v  62.8849 3.1585 0.0237
v  62.7854 3.3034 -0.0337
v  62.6457 3.3933 -0.2989
v  62.6724 3.3933 -0.2066
v  62.5791 3.3933 -0.3681
v  62.5273 3.4281 -0.2784
v  62.5258 3.4402 -0.2297
v  62.5325 3.4402 -0.2066
v  62.4859 3.3933 -0.3912
v  62.3793 3.3881 -0.3758
v  62.4504 3.4373 -0.2066
v  62.4859 3.4402 -0.2528
v  62.2727 3.3725 -0.3297
v  62.2727 3.3829 -0.2066
v  62.3793 3.3881 -0.0374
v  62.2727 3.3725 -0.0836
v  62.6457 3.3933 -0.1143
v  62.5791 3.3933 -0.0451
v  62.5258 3.4402 -0.1836
v  62.5273 3.4281 -0.1348
v  62.4859 3.4559 -0.2066
v  62.4859 3.4402 -0.1605
v  62.4859 3.3933 -0.0220
# 106 vertices

vn 0.4634 -0.3756 0.8026
vn 0.0000 -0.3836 0.9235
vn -0.0000 -1.0000 -0.0000
vn 0.7998 -0.3836 0.4617
vn -0.4634 -0.3756 0.8026
vn -0.7998 -0.3836 0.4617
vn -0.9268 -0.3756 -0.0000
vn -0.7998 -0.3836 -0.4618
vn -0.4634 -0.3756 -0.8026
vn -0.0000 -0.3836 -0.9235
vn 0.4634 -0.3756 -0.8026
vn 0.7998 -0.3836 -0.4617
vn 0.9268 -0.3756 0.0000
vn 0.7199 0.5558 -0.4156
vn 0.8279 0.5609 0.0000
vn 0.4139 0.5609 -0.7170
vn 0.4644 0.3708 -0.8043
vn 0.8057 0.3666 -0.4652
vn 0.9287 0.3708 0.0000
vn -0.0000 0.5558 -0.8313
vn -0.4139 0.5609 -0.7170
vn -0.4644 0.3708 -0.8043
vn -0.0000 0.3666 -0.9304
vn -0.7199 0.5558 -0.4156
vn -0.8279 0.5609 0.0000
vn -0.9287 0.3708 0.0000
vn -0.8057 0.3666 -0.4652
vn -0.7199 0.5558 0.4156
vn -0.4139 0.5609 0.7170
vn -0.4644 0.3708 0.8043
vn -0.8057 0.3666 0.4652
vn 0.0000 0.5558 0.8313
vn 0.4139 0.5609 0.7170
vn 0.4644 0.3708 0.8043
vn -0.0000 0.3666 0.9304
vn 0.7199 0.5558 0.4157
vn 0.8057 0.3666 0.4652
vn 0.8385 0.2502 -0.4841
vn 0.9676 0.2527 0.0000
vn 0.4838 0.2527 -0.8379
vn 0.4757 0.3077 -0.8240
vn 0.8247 0.3054 -0.4761
vn 0.9515 0.3077 0.0000
vn -0.0000 0.2502 -0.9682
vn -0.4838 0.2527 -0.8379
vn -0.4757 0.3077 -0.8240
vn -0.0000 0.3054 -0.9522
vn -0.8385 0.2502 -0.4841
vn -0.9676 0.2527 0.0000
vn -0.9515 0.3077 0.0000
vn -0.8247 0.3054 -0.4761
vn -0.8385 0.2502 0.4841
vn -0.4838 0.2527 0.8379
vn -0.4757 0.3077 0.8240
vn -0.8247 0.3054 0.4761
vn 0.0000 0.2502 0.9682
vn 0.4838 0.2527 0.8379
vn 0.4757 0.3077 0.8240
vn 0.0000 0.3054 0.9522
vn 0.8385 0.2502 0.4841
vn 0.8247 0.3054 0.4761
vn 0.7535 0.4930 -0.4350
vn 0.8688 0.4952 0.0000
vn 0.4344 0.4952 -0.7524
vn 0.3318 0.7481 -0.5746
vn 0.5755 0.7473 -0.3322
vn 0.6635 0.7481 0.0000
vn 0.0000 0.4930 -0.8701
vn -0.4350 0.4913 -0.7546
vn -0.3199 0.7441 -0.5865
vn 0.0024 0.7479 -0.6638
vn -0.7633 0.4724 -0.4407
vn -0.8732 0.4874 0.0000
vn -0.6733 0.7394 0.0000
vn -0.6128 0.7048 -0.3575
vn -0.7633 0.4724 0.4407
vn -0.4350 0.4913 0.7546
vn -0.3199 0.7441 0.5865
vn -0.6128 0.7048 0.3575
vn 0.0000 0.4930 0.8701
vn 0.4344 0.4952 0.7524
vn 0.3318 0.7481 0.5746
vn 0.0024 0.7479 0.6638
vn 0.7535 0.4930 0.4350
vn 0.5755 0.7473 0.3322
vn 0.3613 0.9088 -0.2086
vn 0.4156 0.9096 0.0000
vn 0.2078 0.9096 -0.3599
vn 0.1555 0.9504 -0.2694
vn 0.2779 0.9471 -0.1604
vn 0.3179 0.9481 0.0000
vn -0.0004 0.9101 -0.4144
vn -0.1792 0.9220 -0.3432
vn -0.3422 0.9396 0.0000
vn -0.1887 0.9301 -0.3151
vn -0.3743 0.8992 -0.2264
vn -0.3959 0.9183 0.0000
vn -0.1792 0.9220 0.3432
vn -0.3743 0.8992 0.2264
vn 0.3613 0.9088 0.2086
vn 0.2078 0.9096 0.3599
vn 0.2779 0.9471 0.1604
vn 0.1555 0.9504 0.2694
vn 0.7420 -0.2686 -0.6142
vn 1.0000 0.0000 -0.0000
vn 0.7421 -0.2673 0.6147
vn -0.1887 0.9301 0.3151
vn -0.0004 0.9101 0.4144
# 108 vertex normals

vt -0.0833 0.0000 1.0000
vt 0.0000 0.0000 1.0000
vt 0.3333 0.0000 1.0000
vt 0.0833 0.0000 1.0000
vt 0.1667 0.0000 1.0000
vt 0.2500 0.0000 1.0000
vt 0.4167 0.0000 1.0000
vt 0.5000 0.0000 1.0000
vt 0.5833 0.0000 1.0000
vt 0.6667 0.0000 1.0000
vt 0.6250 0.0000 1.0000
vt 0.6667 0.1250 0.8750
vt 0.7500 0.1250 0.8750
vt 0.5833 0.1250 0.8750
vt 0.5833 0.2500 0.7500
vt 0.6667 0.2500 0.7500
vt 0.7500 0.2500 0.7500
vt 0.5000 0.1250 0.8750
vt 0.4167 0.1250 0.8750
vt 0.4167 0.2500 0.7500
vt 0.5000 0.2500 0.7500
vt 0.3333 0.1250 0.8750
vt 0.2500 0.1250 0.8750
vt 0.2500 0.2500 0.7500
vt 0.3333 0.2500 0.7500
vt 0.1667 0.1250 0.8750
vt 0.0833 0.1250 0.8750
vt 0.0833 0.2500 0.7500
vt 0.1667 0.2500 0.7500
vt 0.0000 0.1250 0.8750
vt -0.0833 0.1250 0.8750
vt -0.0833 0.2500 0.7500
vt 0.0000 0.2500 0.7500
vt 0.9167 0.0000 1.0000
vt 0.8333 0.0000 1.0000
vt 0.8333 0.1250 0.8750
vt 0.9167 0.1250 0.8750
vt 0.8333 0.2500 0.7500
vt 0.9167 0.2500 0.7500
vt 0.6667 0.3750 0.6250
vt 0.7500 0.3750 0.6250
vt 0.5833 0.3750 0.6250
vt 0.5833 0.5000 0.5000
vt 0.6667 0.5000 0.5000
vt 0.7500 0.5000 0.5000
vt 0.5000 0.3750 0.6250
vt 0.4167 0.3750 0.6250
vt 0.4167 0.5000 0.5000
vt 0.5000 0.5000 0.5000
vt 0.3333 0.3750 0.6250
vt 0.2500 0.3750 0.6250
vt 0.2500 0.5000 0.5000
vt 0.3333 0.5000 0.5000
vt 0.1667 0.3750 0.6250
vt 0.0833 0.3750 0.6250
vt 0.0833 0.5000 0.5000
vt 0.1667 0.5000 0.5000
vt 0.0000 0.3750 0.6250
vt -0.0833 0.3750 0.6250
vt -0.0833 0.5000 0.5000
vt 0.0000 0.5000 0.5000
vt 0.8333 0.3750 0.6250
vt 0.9167 0.3750 0.6250
vt 0.8333 0.5000 0.5000
vt 0.9167 0.5000 0.5000
vt 0.6667 0.6250 0.3750
vt 0.7500 0.6250 0.3750
vt 0.5833 0.6250 0.3750
vt 0.5729 0.7500 0.2500
vt 0.6458 0.7500 0.2500
vt 0.7188 0.7500 0.2500
vt 0.5000 0.6250 0.3750
vt 0.4167 0.6250 0.3750
vt 0.4253 0.7474 0.2526
vt 0.5000 0.7500 0.2500
vt 0.3333 0.6250 0.3750
vt 0.2500 0.6250 0.3750
vt 0.2760 0.7448 0.2552
vt 0.3472 0.7396 0.2604
vt 0.1667 0.6250 0.3750
vt 0.0833 0.6250 0.3750
vt 0.1319 0.7474 0.2526
vt 0.1944 0.7396 0.2604
vt 0.0000 0.6250 0.3750
vt -0.0833 0.6250 0.3750
vt -0.0833 0.7500 0.2500
vt 0.0000 0.7500 0.2500
vt 0.8333 0.6250 0.3750
vt 0.9167 0.6250 0.3750
vt 0.7917 0.7500 0.2500
vt 0.9167 0.7500 0.2500
vt 0.5833 0.8750 0.1250
vt 0.6250 0.8750 0.1250
vt 0.5417 0.8750 0.1250
vt 0.5185 0.9444 0.0556
vt 0.5208 0.9688 0.0313
vt 0.5313 0.9688 0.0313
vt 0.5000 0.8750 0.1250
vt 0.4514 0.8646 0.1354
vt 0.4630 0.9630 0.0370
vt 0.5000 0.9688 0.0313
vt 0.3889 0.8333 0.1667
vt 0.3542 0.8542 0.1458
vt 0.2778 0.8646 0.1354
vt 0.2778 0.8333 0.1667
vt 0.6667 0.8750 0.1250
vt 0.7083 0.8750 0.1250
vt 0.5417 0.9688 0.0313
vt 0.4259 0.9444 0.0556
vt 0.5000 1.0000 0.0000
vt 0.4375 0.9688 0.0313
vt 0.2500 0.8750 0.1250
vt 0.2083 0.8750 0.1250
# 113 texture coords

o 3Fungo_sopra
g 3Fungo_sopra
usemtl wire_138008110
s 1
f 1/1/1 2/2/2 3/3/3 4/3/4 
f 5/4/5 6/5/6 3/3/3 2/2/2 
f 7/6/7 8/3/8 3/3/3 6/5/6 
f 9/7/9 10/8/10 3/3/3 8/3/8 
f 11/9/11 12/10/12 3/3/3 10/8/10 
f 13/11/13 4/3/4 3/3/3 12/10/12 
s 8
f 13/11/13 12/10/12 14/12/14 15/13/15 
f 11/9/11 16/14/16 14/12/14 12/10/12 
f 17/15/17 18/16/18 14/12/14 16/14/16 
f 19/17/19 15/13/15 14/12/14 18/16/18 
f 11/9/11 10/8/10 20/18/20 16/14/16 
f 9/7/9 21/19/21 20/18/20 10/8/10 
f 22/20/22 23/21/23 20/18/20 21/19/21 
f 17/15/17 16/14/16 20/18/20 23/21/23 
f 9/7/9 8/3/8 24/22/24 21/19/21 
f 7/6/7 25/23/25 24/22/24 8/3/8 
f 26/24/26 27/25/27 24/22/24 25/23/25 
f 22/20/22 21/19/21 24/22/24 27/25/27 
f 7/6/7 6/5/6 28/26/28 25/23/25 
f 5/4/5 29/27/29 28/26/28 6/5/6 
f 30/28/30 31/29/31 28/26/28 29/27/29 
f 26/24/26 25/23/25 28/26/28 31/29/31 
f 5/4/5 2/2/2 32/30/32 29/27/29 
f 1/1/1 33/31/33 32/30/32 2/2/2 
f 34/32/34 35/33/35 32/30/32 33/31/33 
f 30/28/30 29/27/29 32/30/32 35/33/35 
f 1/34/1 4/35/4 36/36/36 33/37/33 
f 13/11/13 15/13/15 36/36/36 4/35/4 
f 19/17/19 37/38/37 36/36/36 15/13/15 
f 34/39/34 33/37/33 36/36/36 37/38/37 
f 19/17/19 18/16/18 38/40/38 39/41/39 
f 17/15/17 40/42/40 38/40/38 18/16/18 
f 41/43/41 42/44/42 38/40/38 40/42/40 
f 43/45/43 39/41/39 38/40/38 42/44/42 
f 17/15/17 23/21/23 44/46/44 40/42/40 
f 22/20/22 45/47/45 44/46/44 23/21/23 
f 46/48/46 47/49/47 44/46/44 45/47/45 
f 41/43/41 40/42/40 44/46/44 47/49/47 
f 22/20/22 27/25/27 48/50/48 45/47/45 
f 26/24/26 49/51/49 48/50/48 27/25/27 
f 50/52/50 51/53/51 48/50/48 49/51/49 
f 46/48/46 45/47/45 48/50/48 51/53/51 
f 26/24/26 31/29/31 52/54/52 49/51/49 
f 30/28/30 53/55/53 52/54/52 31/29/31 
f 54/56/54 55/57/55 52/54/52 53/55/53 
f 50/52/50 49/51/49 52/54/52 55/57/55 
f 30/28/30 35/33/35 56/58/56 53/55/53 
f 34/32/34 57/59/57 56/58/56 35/33/35 
f 58/60/58 59/61/59 56/58/56 57/59/57 
f 54/56/54 53/55/53 56/58/56 59/61/59 
f 34/39/34 37/38/37 60/62/60 57/63/57 
f 19/17/19 39/41/39 60/62/60 37/38/37 
f 43/45/43 61/64/61 60/62/60 39/41/39 
f 58/65/58 57/63/57 60/62/60 61/64/61 
f 43/45/43 42/44/42 62/66/62 63/67/63 
f 41/43/41 64/68/64 62/66/62 42/44/42 
f 65/69/65 66/70/66 62/66/62 64/68/64 
f 67/71/67 63/67/63 62/66/62 66/70/66 
f 41/43/41 47/49/47 68/72/68 64/68/64 
f 46/48/46 69/73/69 68/72/68 47/49/47 
f 70/74/70 71/75/71 68/72/68 69/73/69 
f 65/69/65 64/68/64 68/72/68 71/75/71 
f 46/48/46 51/53/51 72/76/72 69/73/69 
f 50/52/50 73/77/73 72/76/72 51/53/51 
f 74/78/74 75/79/75 72/76/72 73/77/73 
f 70/74/70 69/73/69 72/76/72 75/79/75 
f 50/52/50 55/57/55 76/80/76 73/77/73 
f 54/56/54 77/81/77 76/80/76 55/57/55 
f 78/82/78 79/83/79 76/80/76 77/81/77 
f 74/78/74 73/77/73 76/80/76 79/83/79 
f 54/56/54 59/61/59 80/84/80 77/81/77 
f 58/60/58 81/85/81 80/84/80 59/61/59 
f 82/86/82 83/87/83 80/84/80 81/85/81 
f 78/82/78 77/81/77 80/84/80 83/87/83 
f 58/65/58 61/64/61 84/88/84 81/89/81 
f 43/45/43 63/67/63 84/88/84 61/64/61 
f 67/71/67 85/90/85 84/88/84 63/67/63 
f 82/91/82 81/89/81 84/88/84 85/90/85 
f 67/71/67 66/70/66 86/92/86 87/93/87 
f 65/69/65 88/94/88 86/92/86 66/70/66 
f 89/95/89 90/96/90 86/92/86 88/94/88 
f 91/97/91 87/93/87 86/92/86 90/96/90 
f 65/69/65 71/75/71 92/98/92 88/94/88 
f 70/74/70 93/99/93 92/98/92 71/75/71 
f 94/100/94 95/101/95 92/98/92 93/99/93 
f 89/95/89 88/94/88 92/98/92 95/101/95 
f 70/74/70 75/79/75 96/102/96 93/99/93 
f 74/78/74 97/103/97 96/102/96 75/79/75 
f 94/100/94 93/99/93 96/102/96 97/103/97 
s 9
f 78/82/78 98/104/98 99/105/99 79/83/79 
f 94/100/94 97/103/97 99/105/99 98/104/98 
f 74/78/74 79/83/79 99/105/99 97/103/97 
s 8
f 82/91/82 85/90/85 100/106/100 101/107/101 
f 67/71/67 87/93/87 100/106/100 85/90/85 
f 91/97/91 102/108/102 100/106/100 87/93/87 
f 103/109/103 101/107/101 100/106/100 102/108/102 
s 9
f 91/97/91 90/96/90 104/110/104 104/110/105 
f 89/95/89 95/101/95 104/110/104 90/96/90 
f 94/100/94 104/110/105 104/110/104 95/101/95 
f 103/109/103 102/108/102 104/110/106 105/111/107 
f 91/97/91 104/110/105 104/110/106 102/108/102 
f 94/100/94 105/111/107 104/110/106 104/110/105 
f 78/82/78 83/87/83 106/112/108 98/104/98 
f 82/86/82 101/113/101 106/112/108 83/87/83 
f 103/109/103 105/111/107 106/112/108 101/113/101 
f 94/100/94 98/104/98 106/112/108 105/111/107 
# 106 polygons

