# 3ds Max Wavefront OBJ Exporter v0.97b - (c)2007 guruware
# File Created: 10.07.2020 17:02:20

mtllib piatto testa.mtl

#
# object 5fungo_sopra
#

v  53.9310 2.4165 -0.1494
v  54.2608 2.5564 -0.9679
v  53.9053 2.5564 -0.8868
v  53.6202 2.5564 -0.6597
v  53.4619 2.5564 -0.3315
v  53.4619 2.5564 0.0328
v  53.6202 2.5564 0.3610
v  53.9053 2.5564 0.5881
v  54.2608 2.5564 0.6692
v  54.6164 2.5564 0.5881
v  54.9015 2.5564 0.3610
v  55.0598 2.5564 0.0328
v  55.0598 2.5564 -0.3315
v  54.9015 2.5564 -0.6597
v  54.6164 2.5564 -0.8868
v  54.1670 2.6880 -1.3913
v  54.1670 2.4626 -1.3784
v  53.6331 2.4626 -1.2567
v  53.6275 2.6880 -1.2683
v  53.2049 2.4626 -0.9157
v  53.1949 2.6880 -0.9237
v  52.9673 2.4626 -0.4229
v  52.9548 2.6880 -0.4257
v  52.9673 2.4626 0.1241
v  52.9548 2.6880 0.1270
v  53.2049 2.4626 0.6169
v  53.1949 2.6880 0.6250
v  53.6331 2.4626 0.9580
v  53.6275 2.6880 0.9696
v  54.1670 2.4626 1.0797
v  54.1670 2.6880 1.0926
v  54.7008 2.4626 0.9580
v  54.7064 2.6880 0.9696
v  55.1290 2.4626 0.6169
v  55.1391 2.6880 0.6250
v  55.3666 2.4626 0.1241
v  55.3791 2.6880 0.1270
v  55.3666 2.4626 -0.4229
v  55.3791 2.6880 -0.4257
v  55.1290 2.4626 -0.9157
v  55.1391 2.6880 -0.9237
v  54.7008 2.4626 -1.2567
v  54.7064 2.6880 -1.2683
v  54.1670 2.2886 -1.0477
v  53.7768 2.2886 -0.9587
v  53.4639 2.2886 -0.7094
v  53.2902 2.2886 -0.3493
v  53.2902 2.2886 0.0505
v  53.4639 2.2886 0.4107
v  53.7768 2.2886 0.6600
v  54.5572 2.2886 0.6600
v  54.8701 2.2886 0.4107
v  55.0437 2.2886 0.0505
v  55.0437 2.2886 -0.3493
v  54.8701 2.2886 -0.7094
v  54.5572 2.2886 -0.9587
v  54.1670 2.2886 0.7489
# 57 vertices

vn 0.1636 0.9865 0.0000
vn -0.0172 0.8615 0.5074
vn 0.2072 0.8585 0.4691
vn 0.4038 0.8497 0.3391
vn 0.5265 0.8408 0.1257
vn 0.5265 0.8408 -0.1257
vn 0.4038 0.8497 -0.3391
vn 0.2072 0.8585 -0.4691
vn -0.0172 0.8615 -0.5074
vn -0.2358 0.8590 -0.4544
vn -0.4134 0.8540 -0.3158
vn -0.5140 0.8503 -0.1133
vn -0.5140 0.8503 0.1133
vn -0.4134 0.8540 0.3158
vn -0.2358 0.8590 0.4544
vn 0.0138 0.8361 -0.5484
vn -0.0000 -0.3250 -0.9457
vn -0.4103 -0.3250 -0.8521
vn -0.2353 0.8257 -0.5128
vn -0.7394 -0.3250 -0.5896
vn -0.4456 0.8181 -0.3636
vn -0.9220 -0.3250 -0.2104
vn -0.5656 0.8141 -0.1313
vn -0.9220 -0.3250 0.2104
vn -0.5656 0.8141 0.1313
vn -0.7394 -0.3250 0.5896
vn -0.4456 0.8181 0.3636
vn -0.4103 -0.3250 0.8521
vn -0.2353 0.8257 0.5128
vn 0.0000 -0.3250 0.9457
vn 0.0138 0.8361 0.5484
vn 0.4103 -0.3250 0.8521
vn 0.2434 0.8479 0.4711
vn 0.7394 -0.3250 0.5896
vn 0.4086 0.8583 0.3103
vn 0.9220 -0.3250 0.2104
vn 0.4908 0.8646 0.1071
vn 0.9220 -0.3250 -0.2104
vn 0.4908 0.8646 -0.1071
vn 0.7394 -0.3250 -0.5896
vn 0.4086 0.8583 -0.3103
vn 0.4103 -0.3250 -0.8521
vn 0.2434 0.8479 -0.4711
vn -0.0000 -0.8749 -0.4844
vn -0.2102 -0.8749 -0.4364
vn -0.3787 -0.8749 -0.3020
vn -0.4722 -0.8749 -0.1078
vn -0.4722 -0.8749 0.1078
vn -0.3787 -0.8749 0.3020
vn -0.2102 -0.8749 0.4364
vn 0.2102 -0.8749 0.4364
vn 0.3787 -0.8749 0.3020
vn 0.4722 -0.8749 0.1078
vn 0.4722 -0.8749 -0.1078
vn 0.3787 -0.8749 -0.3020
vn 0.2102 -0.8749 -0.4364
vn 0.0000 -0.8749 0.4844
# 57 vertex normals

vt 0.0000 1.0000 0.0000
vt 0.0000 0.8571 0.0000
vt 0.0714 0.8571 0.0000
vt 0.0714 1.0000 0.0000
vt 0.1429 0.8571 0.0000
vt 0.1429 1.0000 0.0000
vt 0.2143 0.8571 0.0000
vt 0.2143 1.0000 0.0000
vt 0.2857 0.8571 0.0000
vt 0.2857 1.0000 0.0000
vt 0.3571 0.8571 0.0000
vt 0.3571 1.0000 0.0000
vt 0.4286 0.8571 0.0000
vt 0.4286 1.0000 0.0000
vt 0.5000 0.8571 0.0000
vt 0.5000 1.0000 0.0000
vt 0.5714 0.8571 0.0000
vt 0.5714 1.0000 0.0000
vt 0.6429 0.8571 0.0000
vt 0.6429 1.0000 0.0000
vt 0.7143 0.8571 0.0000
vt 0.7143 1.0000 0.0000
vt 0.7857 0.8571 0.0000
vt 0.7857 1.0000 0.0000
vt 0.8571 0.8571 0.0000
vt 0.8571 1.0000 0.0000
vt 0.9286 0.8571 0.0000
vt 0.9286 1.0000 0.0000
vt 1.0000 0.8571 0.0000
vt 0.0000 0.5714 0.0000
vt 0.0000 0.4286 0.0000
vt 0.0714 0.4286 0.0000
vt 0.0714 0.5714 0.0000
vt 0.1429 0.4286 0.0000
vt 0.1429 0.5714 0.0000
vt 0.2143 0.4286 0.0000
vt 0.2143 0.5714 0.0000
vt 0.2857 0.4286 0.0000
vt 0.2857 0.5714 0.0000
vt 0.3571 0.4286 0.0000
vt 0.3571 0.5714 0.0000
vt 0.4286 0.4286 0.0000
vt 0.4286 0.5714 0.0000
vt 0.5000 0.4286 0.0000
vt 0.5000 0.5714 0.0000
vt 0.5714 0.4286 0.0000
vt 0.5714 0.5714 0.0000
vt 0.6429 0.4286 0.0000
vt 0.6429 0.5714 0.0000
vt 0.7143 0.4286 0.0000
vt 0.7143 0.5714 0.0000
vt 0.7857 0.4286 0.0000
vt 0.7857 0.5714 0.0000
vt 0.8571 0.4286 0.0000
vt 0.8571 0.5714 0.0000
vt 0.9286 0.4286 0.0000
vt 0.9286 0.5714 0.0000
vt 1.0000 0.4286 0.0000
vt 1.0000 0.5714 0.0000
vt 0.0000 0.2857 0.0000
vt 0.0714 0.2857 0.0000
vt 0.1429 0.2857 0.0000
vt 0.2143 0.2857 0.0000
vt 0.2857 0.2857 0.0000
vt 0.3571 0.2857 0.0000
vt 0.4286 0.2857 0.0000
vt 0.5714 0.2857 0.0000
vt 0.6429 0.2857 0.0000
vt 0.7143 0.2857 0.0000
vt 0.7857 0.2857 0.0000
vt 0.8571 0.2857 0.0000
vt 0.9286 0.2857 0.0000
vt 1.0000 0.2857 0.0000
vt 0.5000 0.2857 0.0000
# 74 texture coords

o 5fungo_sopra
g 5fungo_sopra
usemtl wire_135006006
s 1
f 1/1/1 2/2/2 3/3/3 
f 1/4/1 3/3/3 4/5/4 
f 1/6/1 4/5/4 5/7/5 
f 1/8/1 5/7/5 6/9/6 
f 1/10/1 6/9/6 7/11/7 
f 1/12/1 7/11/7 8/13/8 
f 1/14/1 8/13/8 9/15/9 
f 1/16/1 9/15/9 10/17/10 
f 1/18/1 10/17/10 11/19/11 
f 1/20/1 11/19/11 12/21/12 
f 1/22/1 12/21/12 13/23/13 
f 1/24/1 13/23/13 14/25/14 
f 1/26/1 14/25/14 15/27/15 
f 1/28/1 15/27/15 2/29/2 
f 16/30/16 17/31/17 18/32/18 19/33/19 
f 19/33/19 18/32/18 20/34/20 21/35/21 
f 21/35/21 20/34/20 22/36/22 23/37/23 
f 23/37/23 22/36/22 24/38/24 25/39/25 
f 25/39/25 24/38/24 26/40/26 27/41/27 
f 27/41/27 26/40/26 28/42/28 29/43/29 
f 29/43/29 28/42/28 30/44/30 31/45/31 
f 31/45/31 30/44/30 32/46/32 33/47/33 
f 33/47/33 32/46/32 34/48/34 35/49/35 
f 35/49/35 34/48/34 36/50/36 37/51/37 
f 37/51/37 36/50/36 38/52/38 39/53/39 
f 39/53/39 38/52/38 40/54/40 41/55/41 
f 41/55/41 40/54/40 42/56/42 43/57/43 
f 43/57/43 42/56/42 17/58/17 16/59/16 
f 17/31/17 44/60/44 45/61/45 18/32/18 
f 18/32/18 45/61/45 46/62/46 20/34/20 
f 20/34/20 46/62/46 47/63/47 22/36/22 
f 22/36/22 47/63/47 48/64/48 24/38/24 
f 24/38/24 48/64/48 49/65/49 26/40/26 
f 26/40/26 49/65/49 50/66/50 28/42/28 
f 32/46/32 51/67/51 52/68/52 34/48/34 
f 34/48/34 52/68/52 53/69/53 36/50/36 
f 36/50/36 53/69/53 54/70/54 38/52/38 
f 38/52/38 54/70/54 55/71/55 40/54/40 
f 40/54/40 55/71/55 56/72/56 42/56/42 
f 42/56/42 56/72/56 44/73/44 17/58/17 
s off
f 44/60/44 56/72/56 55/71/55 54/70/54 53/69/53 52/68/52 51/67/51 57/74/57 50/66/50 49/65/49 48/64/48 47/63/47 46/62/46 45/61/45 
f 57/74/57 51/67/51 32/46/32 30/44/30 
f 50/66/50 57/74/57 30/44/30 28/42/28 
f 29/43/29 31/45/31 9/15/9 8/13/8 
f 31/45/31 33/47/33 10/17/10 9/15/9 
f 33/47/33 35/49/35 11/19/11 10/17/10 
f 35/49/35 37/51/37 12/21/12 11/19/11 
f 13/23/13 12/21/12 37/51/37 39/53/39 
f 14/25/14 13/23/13 39/53/39 41/55/41 
f 15/27/15 14/25/14 41/55/41 43/57/43 
f 2/2/2 15/27/15 43/57/43 16/30/16 
f 16/30/16 19/33/19 3/3/3 2/2/2 
f 4/5/4 3/3/3 19/33/19 21/35/21 
f 21/35/21 23/37/23 5/7/5 4/5/4 
f 6/9/6 5/7/5 23/37/23 25/39/25 
f 7/11/7 6/9/6 25/39/25 27/41/27 
f 8/13/8 7/11/7 27/41/27 29/43/29 
# 43 polygons - 14 triangles

