# 3ds Max Wavefront OBJ Exporter v0.97b - (c)2007 guruware
# File Created: 13.07.2020 15:42:38

mtllib 7 fungo testa piccolo.mtl

#
# object 2Fungo_sopra2
#

v  50.4762 2.3852 -0.1365
v  50.5212 2.4233 -0.1541
v  50.5352 2.4723 -0.2117
v  50.4787 2.4233 -0.1772
v  50.5470 2.3852 -0.1330
v  50.5658 2.4233 -0.1729
v  50.5938 2.3852 -0.1861
v  50.5789 2.4233 -0.2194
v  50.5815 2.3852 -0.2559
v  50.5506 2.4233 -0.2587
v  50.5193 2.3852 -0.2897
v  50.5023 2.4233 -0.2611
v  50.4540 2.3852 -0.2622
v  50.4703 2.4233 -0.2249
v  50.4349 2.3852 -0.1940
v  50.3459 2.2764 -0.2444
v  50.3418 2.2764 -0.1776
v  50.3772 2.2764 -0.3036
v  50.2692 2.0941 -0.3752
v  50.2142 2.0941 -0.2712
v  50.2069 2.0941 -0.1539
v  50.4320 2.2764 -0.3420
v  50.4978 2.2764 -0.3544
v  50.4810 2.0941 -0.4645
v  50.3655 2.0941 -0.4427
v  50.5620 2.2764 -0.3355
v  50.6127 2.2764 -0.2919
v  50.6830 2.0941 -0.3545
v  50.5939 2.0941 -0.4313
v  50.6380 2.2764 -0.2299
v  50.6355 2.2764 -0.1630
v  50.7229 2.0941 -0.1281
v  50.7273 2.0941 -0.2456
v  50.6028 2.2764 -0.1046
v  50.5489 2.2764 -0.0649
v  50.5708 2.0941 0.0443
v  50.6654 2.0941 -0.0255
v  50.4828 2.2764 -0.0540
v  50.4182 2.2764 -0.0714
v  50.3411 2.0941 0.0328
v  50.4547 2.0941 0.0633
v  50.3685 2.2764 -0.1163
v  50.2539 2.0941 -0.0460
v  50.1274 1.9392 -0.3059
v  50.1170 1.9392 -0.1380
v  50.2061 1.9392 -0.4547
v  50.1542 1.8118 -0.5361
v  50.0518 1.8118 -0.3426
v  50.0383 1.8118 -0.1241
v  50.3438 1.9392 -0.5512
v  50.5092 1.9392 -0.5824
v  50.5486 1.8118 -0.7024
v  50.3334 1.8118 -0.6618
v  50.6706 1.9392 -0.5349
v  50.7981 1.9392 -0.4251
v  50.9245 1.8118 -0.4977
v  50.7586 1.8118 -0.6406
v  50.8616 1.9392 -0.2693
v  50.8552 1.9392 -0.1011
v  50.9988 1.8118 -0.0762
v  51.0071 1.8118 -0.2949
v  50.7730 1.9392 0.0457
v  50.6375 1.9392 0.1455
v  50.7156 1.8118 0.2447
v  50.8918 1.8118 0.1148
v  50.4715 1.9392 0.1727
v  50.3090 1.9392 0.1291
v  50.2881 1.8118 0.2234
v  50.4995 1.8118 0.2802
v  50.1842 1.9392 0.0163
v  50.1257 1.8118 0.0766
v  49.9537 1.7119 -0.3753
v  49.9371 1.7119 -0.1063
v  50.0798 1.7119 -0.6136
v  50.1174 1.6640 -0.5805
v  50.0445 1.6473 -0.3498
v  49.9864 1.6640 -0.1150
v  50.3006 1.7119 -0.7684
v  50.5655 1.7119 -0.8183
v  50.5630 1.6640 -0.7683
v  50.3372 1.6473 -0.6815
v  50.8241 1.7119 -0.7423
v  51.0284 1.7119 -0.5663
v  50.9877 1.6640 -0.5371
v  50.7790 1.6473 -0.6595
v  51.1301 1.7119 -0.3166
v  51.1199 1.7119 -0.0472
v  51.0717 1.6640 -0.0608
v  51.0373 1.6473 -0.3003
v  50.9881 1.7119 0.1880
v  50.7711 1.7119 0.3479
v  50.7517 1.6640 0.3018
v  50.9175 1.6473 0.1256
v  50.5051 1.7119 0.3916
v  50.2447 1.7119 0.3217
v  50.2687 1.6640 0.2777
v  50.5098 1.6473 0.2974
v  50.0447 1.7119 0.1409
v  50.1213 1.6473 0.0859
v  50.5352 1.6257 -0.2117
# 100 vertices

vn -0.2054 0.8946 0.3969
vn 0.0013 0.9242 0.3820
vn 0.0742 0.9972 -0.0131
vn -0.2610 0.9450 0.1970
vn 0.2308 0.8339 0.5014
vn 0.3681 0.8807 0.2980
vn 0.6362 0.7532 0.1669
vn 0.5163 0.8516 -0.0910
vn 0.5408 0.7532 -0.3745
vn 0.2440 0.8807 -0.4059
vn 0.0454 0.8339 -0.5500
vn -0.1295 0.9242 -0.3594
vn -0.3287 0.8946 -0.3027
vn -0.3126 0.9450 -0.0959
vn -0.4033 0.9123 0.0711
vn -0.4393 0.8897 -0.1242
vn -0.4427 0.8933 0.0781
vn -0.3584 0.8778 -0.3178
vn -0.3939 0.8570 -0.3323
vn -0.5052 0.8522 -0.1359
vn -0.5161 0.8517 0.0910
vn -0.1993 0.8576 -0.4741
vn 0.0279 0.8281 -0.5598
vn 0.0121 0.8629 -0.5052
vn -0.2096 0.8596 -0.4659
vn 0.2897 0.7935 -0.5351
vn 0.5248 0.7621 -0.3792
vn 0.4095 0.8610 -0.3016
vn 0.2351 0.8608 -0.4514
vn 0.6518 0.7497 -0.1149
vn 0.6229 0.7621 0.1768
vn 0.4880 0.8610 0.1433
vn 0.5057 0.8581 -0.0892
vn 0.4553 0.7935 0.4038
vn 0.2177 0.8281 0.5165
vn 0.1842 0.8629 0.4706
vn 0.3753 0.8608 0.3438
vn -0.0251 0.8576 0.5137
vn -0.2281 0.8778 0.4212
vn -0.2565 0.8570 0.4469
vn -0.0376 0.8596 0.5095
vn -0.3703 0.8897 0.2669
vn -0.4282 0.8522 0.3005
vn -0.5217 0.8412 -0.1419
vn -0.5417 0.8352 0.0955
vn -0.3844 0.8628 -0.3283
vn -0.3036 0.9130 -0.2726
vn -0.4189 0.9000 -0.1205
vn -0.4354 0.8969 0.0768
vn -0.1869 0.8851 -0.4262
vn 0.0149 0.9064 -0.4221
vn 0.0195 0.9362 -0.3510
vn -0.1453 0.9245 -0.3523
vn 0.1848 0.9197 -0.3464
vn 0.3001 0.9286 -0.2181
vn 0.2587 0.9480 -0.1854
vn 0.1601 0.9431 -0.2916
vn 0.3608 0.9305 -0.0636
vn 0.3566 0.9286 0.1024
vn 0.3065 0.9480 0.0858
vn 0.3107 0.9489 -0.0548
vn 0.2921 0.9197 0.2623
vn 0.1583 0.9064 0.3916
vn 0.1383 0.9362 0.3232
vn 0.2502 0.9431 0.2192
vn -0.0299 0.8851 0.4644
vn -0.2489 0.8628 0.4399
vn -0.1921 0.9130 0.3600
vn -0.0160 0.9245 0.3808
vn -0.4417 0.8412 0.3118
vn -0.3525 0.9000 0.2565
vn -0.9608 -0.0455 -0.2734
vn -0.9848 -0.0026 0.1736
vn -0.7466 0.0036 -0.6652
vn -0.1901 -0.9673 -0.1678
vn -0.1392 -0.9895 -0.0392
vn -0.2497 -0.9673 0.0440
vn -0.3827 -0.0348 -0.9232
vn 0.0551 0.0157 -0.9984
vn 0.0126 -0.9673 -0.2532
vn -0.0562 -0.9895 -0.1332
vn 0.4819 -0.0233 -0.8759
vn 0.8130 0.0241 -0.5818
vn 0.2059 -0.9673 -0.1480
vn 0.0692 -0.9895 -0.1270
vn 0.9846 -0.0188 -0.1736
vn 0.9629 0.0241 0.2687
vn 0.2441 -0.9673 0.0687
vn 0.1424 -0.9895 -0.0251
vn 0.7524 -0.0233 0.6583
vn 0.3932 0.0157 0.9193
vn 0.0985 -0.9673 0.2336
vn 0.1084 -0.9895 0.0957
vn -0.0438 -0.0348 0.9984
vn -0.4741 0.0036 0.8805
vn -0.1213 -0.9673 0.2227
vn -0.0072 -0.9895 0.1444
vn -0.8094 -0.0455 0.5855
vn -0.1174 -0.9895 0.0844
vn -0.0000 -1.0000 0.0000
# 100 vertex normals

vt -0.1071 0.0000 0.0508
vt -0.0357 0.0000 0.0508
vt 0.3214 0.0000 0.0508
vt 0.0675 0.0741 0.1211
vt 0.1607 0.0417 0.0904
vt 0.1944 0.0741 0.1211
vt 0.2679 0.0417 0.0904
vt 0.3214 0.0741 0.1211
vt 0.3750 0.0417 0.0904
vt 0.4484 0.0741 0.1211
vt 0.4821 0.0417 0.0904
vt 0.5754 0.0741 0.1211
vt 0.5893 0.0417 0.0904
vt 0.5913 0.0741 0.1211
vt 0.6786 0.1667 0.2090
vt 0.7500 0.1667 0.2090
vt 0.6071 0.1667 0.2090
vt 0.6071 0.3333 0.3672
vt 0.6786 0.3333 0.3672
vt 0.7500 0.3333 0.3672
vt 0.5357 0.1667 0.2090
vt 0.4643 0.1667 0.2090
vt 0.4643 0.3333 0.3672
vt 0.5357 0.3333 0.3672
vt 0.3929 0.1667 0.2090
vt 0.3214 0.1667 0.2090
vt 0.3214 0.3333 0.3672
vt 0.3929 0.3333 0.3672
vt 0.2500 0.1667 0.2090
vt 0.1786 0.1667 0.2090
vt 0.1786 0.3333 0.3672
vt 0.2500 0.3333 0.3672
vt 0.1071 0.1667 0.2090
vt 0.0357 0.1667 0.2090
vt 0.0357 0.3333 0.3672
vt 0.1071 0.3333 0.3672
vt -0.0357 0.1667 0.2090
vt -0.1071 0.1667 0.2090
vt -0.1071 0.3333 0.3672
vt -0.0357 0.3333 0.3672
vt 0.8929 0.0000 0.0508
vt 0.8214 0.0000 0.0508
vt 0.8214 0.1667 0.2090
vt 0.8929 0.1667 0.2090
vt 0.8214 0.3333 0.3672
vt 0.8929 0.3333 0.3672
vt 0.6786 0.5000 0.5254
vt 0.7500 0.5000 0.5254
vt 0.6071 0.5000 0.5254
vt 0.6071 0.6667 0.6836
vt 0.6786 0.6667 0.6836
vt 0.7500 0.6667 0.6836
vt 0.5357 0.5000 0.5254
vt 0.4643 0.5000 0.5254
vt 0.4643 0.6667 0.6836
vt 0.5357 0.6667 0.6836
vt 0.3929 0.5000 0.5254
vt 0.3214 0.5000 0.5254
vt 0.3214 0.6667 0.6836
vt 0.3929 0.6667 0.6836
vt 0.2500 0.5000 0.5254
vt 0.1786 0.5000 0.5254
vt 0.1786 0.6667 0.6836
vt 0.2500 0.6667 0.6836
vt 0.1071 0.5000 0.5254
vt 0.0357 0.5000 0.5254
vt 0.0357 0.6667 0.6836
vt 0.1071 0.6667 0.6836
vt -0.0357 0.5000 0.5254
vt -0.1071 0.5000 0.5254
vt -0.1071 0.6667 0.6836
vt -0.0357 0.6667 0.6836
vt 0.8214 0.5000 0.5254
vt 0.8929 0.5000 0.5254
vt 0.8214 0.6667 0.6836
vt 0.8929 0.6667 0.6836
vt 0.6786 0.8333 0.8418
vt 0.7500 0.8333 0.8418
vt 0.6071 0.8333 0.8418
vt 0.5913 0.9259 0.9297
vt 0.6250 0.9583 0.9605
vt 0.7183 0.9259 0.9297
vt 0.5357 0.8333 0.8418
vt 0.4643 0.8333 0.8418
vt 0.4643 0.9259 0.9297
vt 0.5179 0.9583 0.9605
vt 0.3929 0.8333 0.8418
vt 0.3214 0.8333 0.8418
vt 0.3373 0.9259 0.9297
vt 0.4107 0.9583 0.9605
vt 0.2500 0.8333 0.8418
vt 0.1786 0.8333 0.8418
vt 0.2103 0.9259 0.9297
vt 0.3036 0.9583 0.9605
vt 0.1071 0.8333 0.8418
vt 0.0357 0.8333 0.8418
vt 0.0833 0.9259 0.9297
vt 0.1964 0.9583 0.9605
vt -0.0357 0.8333 0.8418
vt -0.1071 0.8333 0.8418
vt -0.1071 1.0000 1.0000
vt -0.0357 1.0000 1.0000
vt 0.8214 0.8333 0.8418
vt 0.8929 0.8333 0.8418
vt 0.7321 0.9583 0.9605
vt 0.8929 1.0000 1.0000
vt 0.4643 1.0000 1.0000
# 107 texture coords

o 2Fungo_sopra2
g 2Fungo_sopra2
usemtl wire_088144225
s 1
f 1/1/1 2/2/2 3/3/3 4/3/4 
f 5/4/5 6/5/6 3/3/3 2/2/2 
f 7/6/7 8/7/8 3/3/3 6/5/6 
f 9/8/9 10/9/10 3/3/3 8/7/8 
f 11/10/11 12/11/12 3/3/3 10/9/10 
f 13/12/13 14/13/14 3/3/3 12/11/12 
f 15/14/15 4/3/4 3/3/3 14/13/14 
s 8
f 15/14/15 14/13/14 16/15/16 17/16/17 
f 13/12/13 18/17/18 16/15/16 14/13/14 
f 19/18/19 20/19/20 16/15/16 18/17/18 
f 21/20/21 17/16/17 16/15/16 20/19/20 
f 13/12/13 12/11/12 22/21/22 18/17/18 
f 11/10/11 23/22/23 22/21/22 12/11/12 
f 24/23/24 25/24/25 22/21/22 23/22/23 
f 19/18/19 18/17/18 22/21/22 25/24/25 
f 11/10/11 10/9/10 26/25/26 23/22/23 
f 9/8/9 27/26/27 26/25/26 10/9/10 
f 28/27/28 29/28/29 26/25/26 27/26/27 
f 24/23/24 23/22/23 26/25/26 29/28/29 
f 9/8/9 8/7/8 30/29/30 27/26/27 
f 7/6/7 31/30/31 30/29/30 8/7/8 
f 32/31/32 33/32/33 30/29/30 31/30/31 
f 28/27/28 27/26/27 30/29/30 33/32/33 
f 7/6/7 6/5/6 34/33/34 31/30/31 
f 5/4/5 35/34/35 34/33/34 6/5/6 
f 36/35/36 37/36/37 34/33/34 35/34/35 
f 32/31/32 31/30/31 34/33/34 37/36/37 
f 5/4/5 2/2/2 38/37/38 35/34/35 
f 1/1/1 39/38/39 38/37/38 2/2/2 
f 40/39/40 41/40/41 38/37/38 39/38/39 
f 36/35/36 35/34/35 38/37/38 41/40/41 
f 1/41/1 4/42/4 42/43/42 39/44/39 
f 15/14/15 17/16/17 42/43/42 4/42/4 
f 21/20/21 43/45/43 42/43/42 17/16/17 
f 40/46/40 39/44/39 42/43/42 43/45/43 
f 21/20/21 20/19/20 44/47/44 45/48/45 
f 19/18/19 46/49/46 44/47/44 20/19/20 
f 47/50/47 48/51/48 44/47/44 46/49/46 
f 49/52/49 45/48/45 44/47/44 48/51/48 
f 19/18/19 25/24/25 50/53/50 46/49/46 
f 24/23/24 51/54/51 50/53/50 25/24/25 
f 52/55/52 53/56/53 50/53/50 51/54/51 
f 47/50/47 46/49/46 50/53/50 53/56/53 
f 24/23/24 29/28/29 54/57/54 51/54/51 
f 28/27/28 55/58/55 54/57/54 29/28/29 
f 56/59/56 57/60/57 54/57/54 55/58/55 
f 52/55/52 51/54/51 54/57/54 57/60/57 
f 28/27/28 33/32/33 58/61/58 55/58/55 
f 32/31/32 59/62/59 58/61/58 33/32/33 
f 60/63/60 61/64/61 58/61/58 59/62/59 
f 56/59/56 55/58/55 58/61/58 61/64/61 
f 32/31/32 37/36/37 62/65/62 59/62/59 
f 36/35/36 63/66/63 62/65/62 37/36/37 
f 64/67/64 65/68/65 62/65/62 63/66/63 
f 60/63/60 59/62/59 62/65/62 65/68/65 
f 36/35/36 41/40/41 66/69/66 63/66/63 
f 40/39/40 67/70/67 66/69/66 41/40/41 
f 68/71/68 69/72/69 66/69/66 67/70/67 
f 64/67/64 63/66/63 66/69/66 69/72/69 
f 40/46/40 43/45/43 70/73/70 67/74/67 
f 21/20/21 45/48/45 70/73/70 43/45/43 
f 49/52/49 71/75/71 70/73/70 45/48/45 
f 68/76/68 67/74/67 70/73/70 71/75/71 
f 49/52/49 48/51/48 72/77/72 73/78/73 
f 47/50/47 74/79/74 72/77/72 48/51/48 
f 75/80/75 76/81/76 72/77/72 74/79/74 
f 77/82/77 73/78/73 72/77/72 76/81/76 
f 47/50/47 53/56/53 78/83/78 74/79/74 
f 52/55/52 79/84/79 78/83/78 53/56/53 
f 80/85/80 81/86/81 78/83/78 79/84/79 
f 75/80/75 74/79/74 78/83/78 81/86/81 
f 52/55/52 57/60/57 82/87/82 79/84/79 
f 56/59/56 83/88/83 82/87/82 57/60/57 
f 84/89/84 85/90/85 82/87/82 83/88/83 
f 80/85/80 79/84/79 82/87/82 85/90/85 
f 56/59/56 61/64/61 86/91/86 83/88/83 
f 60/63/60 87/92/87 86/91/86 61/64/61 
f 88/93/88 89/94/89 86/91/86 87/92/87 
f 84/89/84 83/88/83 86/91/86 89/94/89 
f 60/63/60 65/68/65 90/95/90 87/92/87 
f 64/67/64 91/96/91 90/95/90 65/68/65 
f 92/97/92 93/98/93 90/95/90 91/96/91 
f 88/93/88 87/92/87 90/95/90 93/98/93 
f 64/67/64 69/72/69 94/99/94 91/96/91 
f 68/71/68 95/100/95 94/99/94 69/72/69 
f 96/101/96 97/102/97 94/99/94 95/100/95 
f 92/97/92 91/96/91 94/99/94 97/102/97 
f 68/76/68 71/75/71 98/103/98 95/104/95 
f 49/52/49 73/78/73 98/103/98 71/75/71 
f 77/82/77 99/105/99 98/103/98 73/78/73 
f 96/106/96 95/104/95 98/103/98 99/105/99 
s 1
f 96/106/96 99/105/99 100/107/100 97/107/97 
f 77/82/77 76/81/76 100/107/100 99/105/99 
f 75/80/75 81/86/81 100/107/100 76/81/76 
f 80/85/80 85/90/85 100/107/100 81/86/81 
f 84/89/84 89/94/89 100/107/100 85/90/85 
f 88/93/88 93/98/93 100/107/100 89/94/89 
f 92/97/92 97/107/97 100/107/100 93/98/93 
# 98 polygons

