# 3ds Max Wavefront OBJ Exporter v0.97b - (c)2007 guruware
# File Created: 10.07.2020 17:05:44

mtllib testa medusa.mtl

#
# object 6fungo_sopra
#

v  65.6567 1.7502 0.1330
v  65.6567 1.7183 -0.0550
v  65.5628 1.7183 -0.0298
v  65.4940 1.7183 0.0390
v  65.4688 1.7183 0.1330
v  65.4940 1.7183 0.2269
v  65.5628 1.7183 0.2957
v  65.6567 1.7183 0.3209
v  65.7507 1.7183 0.2957
v  65.8195 1.7183 0.2269
v  65.8447 1.7183 0.1330
v  65.8195 1.7183 0.0390
v  65.7507 1.7183 -0.0298
v  65.6567 1.6313 -0.1925
v  65.4940 1.6313 -0.1489
v  65.3749 1.6313 -0.0298
v  65.3313 1.6313 0.1330
v  65.3749 1.6313 0.2957
v  65.4940 1.6313 0.4148
v  65.6567 1.6313 0.4584
v  65.8195 1.6313 0.4148
v  65.9386 1.6313 0.2957
v  65.9822 1.6313 0.1330
v  65.9386 1.6313 -0.0298
v  65.8195 1.6313 -0.1489
v  65.6567 1.4255 -0.4356
v  65.3725 1.3700 -0.3594
v  65.1644 1.4255 -0.1513
v  65.0882 1.4255 0.1330
v  65.1644 1.4255 0.4172
v  65.3725 1.4255 0.6253
v  65.6567 1.4255 0.7015
v  65.9410 1.4255 0.6253
v  66.1491 1.4255 0.4172
v  66.2253 1.4255 0.1330
v  66.1491 1.4255 -0.1513
v  65.9410 1.4255 -0.3594
v  65.6567 1.4180 -0.6505
v  65.2650 1.4180 -0.5455
v  64.9783 1.4180 -0.2588
v  64.8733 1.3926 0.1330
v  64.9783 1.3926 0.5247
v  65.2650 1.3926 0.8114
v  65.6567 1.3083 0.9164
v  66.0485 1.3083 0.8114
v  66.3352 1.3083 0.5247
v  66.4402 1.3083 0.1330
v  66.3352 1.3580 -0.2588
v  66.0485 1.3834 -0.5455
v  65.6567 1.3176 -0.6403
v  65.2701 1.3176 -0.5367
v  64.9871 1.3176 -0.2537
v  64.8835 1.2922 0.1330
v  64.9871 1.2922 0.5196
v  65.2701 1.2922 0.8026
v  65.6567 1.2079 0.9062
v  66.0434 1.2079 0.8026
v  66.3264 1.2079 0.5196
v  66.4300 1.2079 0.1330
v  66.3264 1.2576 -0.2537
v  66.0434 1.2830 -0.5367
v  65.6567 1.2011 0.1330
# 62 vertices

vn 0.0000 1.0000 0.0000
vn 0.0000 0.9227 -0.3856
vn -0.1928 0.9227 -0.3339
vn -0.3339 0.9227 -0.1928
vn -0.3856 0.9227 -0.0000
vn -0.3339 0.9227 0.1928
vn -0.1928 0.9227 0.3339
vn -0.0000 0.9227 0.3856
vn 0.1928 0.9227 0.3339
vn 0.3339 0.9227 0.1928
vn 0.3856 0.9227 0.0000
vn 0.3339 0.9227 -0.1928
vn 0.1928 0.9227 -0.3339
vn 0.0000 0.8007 -0.5991
vn -0.3254 0.7592 -0.5637
vn -0.5189 0.8007 -0.2996
vn -0.5991 0.8007 -0.0000
vn -0.5189 0.8007 0.2996
vn -0.2996 0.8007 0.5189
vn -0.0000 0.8007 0.5991
vn 0.2996 0.8007 0.5189
vn 0.5189 0.8007 0.2996
vn 0.5991 0.8007 0.0000
vn 0.5189 0.8007 -0.2996
vn 0.2996 0.8007 -0.5189
vn -0.0942 0.9440 -0.3163
vn -0.1044 0.9780 -0.1808
vn -0.2268 0.9440 -0.2397
vn -0.3756 0.9268 -0.0000
vn -0.3253 0.9268 0.1878
vn -0.1878 0.9268 0.3253
vn -0.0000 0.8327 0.5537
vn 0.2769 0.8327 0.4796
vn 0.4796 0.8327 0.2769
vn 0.5537 0.8327 0.0000
vn 0.3953 0.8897 -0.2283
vn 0.1990 0.9173 -0.3448
vn 0.0216 0.6138 -0.7892
vn -0.3638 0.6860 -0.6301
vn -0.6933 0.6110 -0.3821
vn -0.8327 0.5535 0.0142
vn -0.7161 0.5623 0.4135
vn -0.3603 0.5866 0.7253
vn 0.0332 0.4037 0.9143
vn 0.4509 0.4322 0.7810
vn 0.7810 0.4322 0.4509
vn 0.9093 0.4157 0.0207
vn 0.7622 0.5133 -0.3944
vn 0.4481 0.5432 -0.7100
vn -0.0234 -0.6332 -0.7736
vn -0.3830 -0.6430 -0.6633
vn -0.6596 -0.6359 -0.4007
vn -0.7512 -0.6599 -0.0178
vn -0.6556 -0.6534 0.3785
vn -0.4368 -0.6280 0.6441
vn -0.0622 -0.7057 0.7058
vn 0.3630 -0.6877 0.6287
vn 0.6287 -0.6877 0.3630
vn 0.7138 -0.6993 -0.0367
vn 0.6233 -0.6591 -0.4208
vn 0.3393 -0.6583 -0.6719
vn -0.0575 -0.9971 -0.0500
# 62 vertex normals

vt 0.0000 1.0000 0.0000
vt 0.0000 0.8333 0.0000
vt 0.0833 0.8333 0.0000
vt 0.0833 1.0000 0.0000
vt 0.1667 0.8333 0.0000
vt 0.1667 1.0000 0.0000
vt 0.2500 0.8333 0.0000
vt 0.2500 1.0000 0.0000
vt 0.3333 0.8333 0.0000
vt 0.3333 1.0000 0.0000
vt 0.4167 0.8333 0.0000
vt 0.4167 1.0000 0.0000
vt 0.5000 0.8333 0.0000
vt 0.5000 1.0000 0.0000
vt 0.5833 0.8333 0.0000
vt 0.5833 1.0000 0.0000
vt 0.6667 0.8333 0.0000
vt 0.6667 1.0000 0.0000
vt 0.7500 0.8333 0.0000
vt 0.7500 1.0000 0.0000
vt 0.8333 0.8333 0.0000
vt 0.8333 1.0000 0.0000
vt 0.9167 0.8333 0.0000
vt 0.9167 1.0000 0.0000
vt 1.0000 0.8333 0.0000
vt 0.0000 0.6667 0.0000
vt 0.0833 0.6667 0.0000
vt 0.1667 0.6667 0.0000
vt 0.2500 0.6667 0.0000
vt 0.3333 0.6667 0.0000
vt 0.4167 0.6667 0.0000
vt 0.5000 0.6667 0.0000
vt 0.5833 0.6667 0.0000
vt 0.6667 0.6667 0.0000
vt 0.7500 0.6667 0.0000
vt 0.8333 0.6667 0.0000
vt 0.9167 0.6667 0.0000
vt 1.0000 0.6667 0.0000
vt 0.0000 0.5000 0.0000
vt 0.0833 0.5000 0.0000
vt 0.1667 0.5000 0.0000
vt 0.2500 0.5000 0.0000
vt 0.3333 0.5000 0.0000
vt 0.4167 0.5000 0.0000
vt 0.5000 0.5000 0.0000
vt 0.5833 0.5000 0.0000
vt 0.6667 0.5000 0.0000
vt 0.7500 0.5000 0.0000
vt 0.8333 0.5000 0.0000
vt 0.9167 0.5000 0.0000
vt 1.0000 0.5000 0.0000
vt 0.0000 0.3333 0.0000
vt 0.0833 0.3333 0.0000
vt 0.1667 0.3333 0.0000
vt 0.2500 0.3333 0.0000
vt 0.3333 0.3333 0.0000
vt 0.4167 0.3333 0.0000
vt 0.5000 0.3333 0.0000
vt 0.5833 0.3333 0.0000
vt 0.6667 0.3333 0.0000
vt 0.7500 0.3333 0.0000
vt 0.8333 0.3333 0.0000
vt 0.9167 0.3333 0.0000
vt 1.0000 0.3333 0.0000
vt 0.0000 0.1667 0.0000
vt 0.0833 0.1667 0.0000
vt 0.1667 0.1667 0.0000
vt 0.2500 0.1667 0.0000
vt 0.3333 0.1667 0.0000
vt 0.4167 0.1667 0.0000
vt 0.5000 0.1667 0.0000
vt 0.5833 0.1667 0.0000
vt 0.6667 0.1667 0.0000
vt 0.7500 0.1667 0.0000
vt 0.8333 0.1667 0.0000
vt 0.9167 0.1667 0.0000
vt 1.0000 0.1667 0.0000
vt 0.0000 0.0000 0.0000
vt 0.0833 0.0000 0.0000
vt 0.1667 0.0000 0.0000
vt 0.2500 0.0000 0.0000
vt 0.3333 0.0000 0.0000
vt 0.4167 0.0000 0.0000
vt 0.5000 0.0000 0.0000
vt 0.5833 0.0000 0.0000
vt 0.6667 0.0000 0.0000
vt 0.7500 0.0000 0.0000
vt 0.8333 0.0000 0.0000
vt 0.9167 0.0000 0.0000
# 89 texture coords

o 6fungo_sopra
g 6fungo_sopra
usemtl wire_028149177
s 1
f 1/1/1 2/2/2 3/3/3 
f 1/4/1 3/3/3 4/5/4 
f 1/6/1 4/5/4 5/7/5 
f 1/8/1 5/7/5 6/9/6 
f 1/10/1 6/9/6 7/11/7 
f 1/12/1 7/11/7 8/13/8 
f 1/14/1 8/13/8 9/15/9 
f 1/16/1 9/15/9 10/17/10 
f 1/18/1 10/17/10 11/19/11 
f 1/20/1 11/19/11 12/21/12 
f 1/22/1 12/21/12 13/23/13 
f 1/24/1 13/23/13 2/25/2 
f 2/2/2 14/26/14 15/27/15 3/3/3 
f 3/3/3 15/27/15 16/28/16 4/5/4 
f 4/5/4 16/28/16 17/29/17 5/7/5 
f 5/7/5 17/29/17 18/30/18 6/9/6 
f 6/9/6 18/30/18 19/31/19 7/11/7 
f 7/11/7 19/31/19 20/32/20 8/13/8 
f 8/13/8 20/32/20 21/33/21 9/15/9 
f 9/15/9 21/33/21 22/34/22 10/17/10 
f 10/17/10 22/34/22 23/35/23 11/19/11 
f 11/19/11 23/35/23 24/36/24 12/21/12 
f 12/21/12 24/36/24 25/37/25 13/23/13 
f 13/23/13 25/37/25 14/38/14 2/25/2 
f 14/26/14 26/39/26 27/40/27 15/27/15 
f 15/27/15 27/40/27 28/41/28 16/28/16 
f 16/28/16 28/41/28 29/42/29 17/29/17 
f 17/29/17 29/42/29 30/43/30 18/30/18 
f 18/30/18 30/43/30 31/44/31 19/31/19 
f 19/31/19 31/44/31 32/45/32 20/32/20 
f 20/32/20 32/45/32 33/46/33 21/33/21 
f 21/33/21 33/46/33 34/47/34 22/34/22 
f 22/34/22 34/47/34 35/48/35 23/35/23 
f 23/35/23 35/48/35 36/49/36 24/36/24 
f 24/36/24 36/49/36 37/50/37 25/37/25 
f 25/37/25 37/50/37 26/51/26 14/38/14 
f 26/39/26 38/52/38 39/53/39 27/40/27 
f 27/40/27 39/53/39 40/54/40 28/41/28 
f 28/41/28 40/54/40 41/55/41 29/42/29 
f 29/42/29 41/55/41 42/56/42 30/43/30 
f 30/43/30 42/56/42 43/57/43 31/44/31 
f 31/44/31 43/57/43 44/58/44 32/45/32 
f 32/45/32 44/58/44 45/59/45 33/46/33 
f 33/46/33 45/59/45 46/60/46 34/47/34 
f 34/47/34 46/60/46 47/61/47 35/48/35 
f 35/48/35 47/61/47 48/62/48 36/49/36 
f 36/49/36 48/62/48 49/63/49 37/50/37 
f 37/50/37 49/63/49 38/64/38 26/51/26 
f 38/52/38 50/65/50 51/66/51 39/53/39 
f 39/53/39 51/66/51 52/67/52 40/54/40 
f 40/54/40 52/67/52 53/68/53 41/55/41 
f 41/55/41 53/68/53 54/69/54 42/56/42 
f 42/56/42 54/69/54 55/70/55 43/57/43 
f 43/57/43 55/70/55 56/71/56 44/58/44 
f 44/58/44 56/71/56 57/72/57 45/59/45 
f 45/59/45 57/72/57 58/73/58 46/60/46 
f 46/60/46 58/73/58 59/74/59 47/61/47 
f 47/61/47 59/74/59 60/75/60 48/62/48 
f 48/62/48 60/75/60 61/76/61 49/63/49 
f 49/63/49 61/76/61 50/77/50 38/64/38 
f 62/78/62 51/66/51 50/65/50 
f 62/79/62 52/67/52 51/66/51 
f 62/80/62 53/68/53 52/67/52 
f 62/81/62 54/69/54 53/68/53 
f 62/82/62 55/70/55 54/69/54 
f 62/83/62 56/71/56 55/70/55 
f 62/84/62 57/72/57 56/71/56 
f 62/85/62 58/73/58 57/72/57 
f 62/86/62 59/74/59 58/73/58 
f 62/87/62 60/75/60 59/74/59 
f 62/88/62 61/76/61 60/75/60 
f 62/89/62 50/77/50 61/76/61 
# 48 polygons - 24 triangles

