# 3ds Max Wavefront OBJ Exporter v0.97b - (c)2007 guruware
# File Created: 10.07.2020 17:00:16

mtllib testa triangolo 1.mtl

#
# object 2Fungo_sopra1
#

v  49.2692 4.0226 -0.4232
v  49.2109 4.0226 -0.4365
v  49.1642 4.0226 -0.3992
v  49.1642 4.0226 -0.3394
v  49.2109 4.0226 -0.3021
v  49.2692 4.0226 -0.3154
v  49.2952 4.0226 -0.3693
v  49.6920 3.4421 0.0200
v  49.8794 3.4421 -0.3693
v  49.2708 3.4421 0.1161
v  48.9330 3.4421 -0.1533
v  48.9330 3.4421 -0.5853
v  49.2708 3.4421 -0.8547
v  49.6920 3.4421 -0.7585
v  49.8041 3.0236 0.3553
v  50.1531 3.0236 -0.3693
v  49.0200 3.0236 0.5343
v  48.3912 3.0236 0.0329
v  48.3912 3.0236 -0.7714
v  49.0200 3.0236 -1.2729
v  49.8041 3.0236 -1.0939
v  50.0716 2.7683 0.6907
v  50.5821 2.7683 -0.3693
v  48.9246 2.7683 0.9525
v  48.0047 2.7683 0.2190
v  48.0047 2.7683 -0.9575
v  48.9246 2.7683 -1.6911
v  50.0716 2.7683 -1.4293
# 28 vertices

vn 0.1659 0.9538 -0.2504
vn -0.1315 0.9241 -0.3588
vn -0.4203 0.8915 -0.1689
vn -0.4203 0.8915 0.1689
vn -0.1315 0.9241 0.3588
vn 0.1659 0.9538 0.2504
vn 0.2699 0.9629 -0.0000
vn 0.3468 0.8678 0.3559
vn 0.5182 0.8553 -0.0000
vn -0.0573 0.8879 0.4565
vn -0.4107 0.8849 0.2197
vn -0.4107 0.8849 -0.2197
vn -0.0573 0.8879 -0.4565
vn 0.3468 0.8678 -0.3559
vn 0.2103 0.9360 0.2821
vn 0.3856 0.9227 0.0000
vn -0.0763 0.9517 0.2974
vn -0.2583 0.9584 0.1215
vn -0.2583 0.9584 -0.1215
vn -0.0763 0.9517 -0.2974
vn 0.2103 0.9360 -0.2821
vn 0.6199 -0.1076 0.7773
vn 0.9942 -0.1076 -0.0000
vn -0.2212 -0.1076 0.9693
vn -0.8957 -0.1076 0.4314
vn -0.8957 -0.1076 -0.4314
vn -0.2212 -0.1076 -0.9693
vn 0.6199 -0.1076 -0.7773
# 28 vertex normals

vt -0.1071 0.0000 0.0508
vt 0.0357 0.0000 0.0508
vt 0.1786 0.0000 0.0508
vt 0.3214 0.0000 0.0508
vt 0.4643 0.0000 0.0508
vt 0.6071 0.0000 0.0508
vt 0.7500 0.0000 0.0508
vt 0.6071 0.3333 0.3672
vt 0.7500 0.3333 0.3672
vt 0.4643 0.3333 0.3672
vt 0.3214 0.3333 0.3672
vt 0.1786 0.3333 0.3672
vt 0.0357 0.3333 0.3672
vt -0.1071 0.3333 0.3672
vt 0.8929 0.0000 0.0508
vt 0.8929 0.3333 0.3672
vt 0.6071 0.6667 0.6836
vt 0.7500 0.6667 0.6836
vt 0.4643 0.6667 0.6836
vt 0.3214 0.6667 0.6836
vt 0.1786 0.6667 0.6836
vt 0.0357 0.6667 0.6836
vt -0.1071 0.6667 0.6836
vt 0.8929 0.6667 0.6836
vt 0.6071 1.0000 1.0000
vt 0.7500 1.0000 1.0000
vt 0.4643 1.0000 1.0000
vt 0.3214 1.0000 1.0000
vt 0.1786 1.0000 1.0000
vt 0.0357 1.0000 1.0000
vt -0.1071 1.0000 1.0000
vt 0.8929 1.0000 1.0000
# 32 texture coords

o 2Fungo_sopra1
g 2Fungo_sopra1
usemtl wire_088144225
s 1
f 1/1/1 2/2/2 3/3/3 4/4/4 5/5/5 6/6/6 7/7/7 
s 8
f 7/7/7 6/6/6 8/8/8 9/9/9 
f 6/6/6 5/5/5 10/10/10 8/8/8 
f 5/5/5 4/4/4 11/11/11 10/10/10 
f 4/4/4 3/3/3 12/12/12 11/11/11 
f 3/3/3 2/2/2 13/13/13 12/12/12 
f 2/2/2 1/1/1 14/14/14 13/13/13 
f 1/15/1 7/7/7 9/9/9 14/16/14 
f 9/9/9 8/8/8 15/17/15 16/18/16 
f 8/8/8 10/10/10 17/19/17 15/17/15 
f 10/10/10 11/11/11 18/20/18 17/19/17 
f 11/11/11 12/12/12 19/21/19 18/20/18 
f 12/12/12 13/13/13 20/22/20 19/21/19 
f 13/13/13 14/14/14 21/23/21 20/22/20 
f 14/16/14 9/9/9 16/18/16 21/24/21 
f 16/18/16 15/17/15 22/25/22 23/26/23 
f 15/17/15 17/19/17 24/27/24 22/25/22 
f 17/19/17 18/20/18 25/28/25 24/27/24 
f 18/20/18 19/21/19 26/29/26 25/28/25 
f 19/21/19 20/22/20 27/30/27 26/29/26 
f 20/22/20 21/23/21 28/31/28 27/30/27 
f 21/24/21 16/18/16 23/26/23 28/32/28 
s 1
f 28/32/28 23/26/23 22/25/22 24/27/24 25/28/25 26/29/26 27/30/27 
# 23 polygons

