# 3ds Max Wavefront OBJ Exporter v0.97b - (c)2007 guruware
# File Created: 10.07.2020 16:48:05

mtllib Ramo cono alto.mtl

#
# object Cylinder004
#

v  6.4319 12.0502 -1.1904
v  7.5740 11.0919 -0.7060
v  7.5740 11.0919 0.8615
v  6.4319 12.0502 1.3459
v  5.7261 12.6424 0.0778
v  11.4203 14.2197 1.0902
v  10.8568 14.6925 0.0778
v  12.3320 13.4546 0.7035
v  12.3320 13.4546 -0.5479
v  11.4203 14.2197 -0.9347
v  17.4032 20.1968 0.8984
v  16.9464 20.5801 0.0778
v  18.1422 19.5767 0.5850
v  18.1422 19.5767 -0.4294
v  17.4032 20.1968 -0.7429
v  19.7973 28.7456 0.6314
v  19.4892 29.0042 0.0778
v  20.2959 28.3272 0.4200
v  20.2959 28.3272 -0.2644
v  19.7973 28.7456 -0.4759
# 20 vertices

vn -0.6106 -0.1342 -0.7805
vn -0.0501 -0.8739 -0.4835
vn -0.0501 -0.8739 0.4835
vn -0.6106 -0.1342 0.7805
vn -0.9620 0.2730 -0.0000
vn -0.1236 0.2185 0.9680
vn -0.5232 0.8522 -0.0000
vn 0.5054 -0.6601 0.5557
vn 0.5054 -0.6601 -0.5557
vn -0.1236 0.2185 -0.9680
vn -0.1632 0.1434 0.9761
vn -0.8621 0.5067 0.0000
vn 0.7376 -0.4001 0.5439
vn 0.7376 -0.4001 -0.5439
vn -0.1632 0.1434 -0.9761
vn 0.0533 0.6468 0.7608
vn -0.4025 0.9154 -0.0000
vn 0.8543 0.2315 0.4653
vn 0.8543 0.2315 -0.4653
vn 0.0533 0.6468 -0.7608
# 20 vertex normals

vt 0.2045 0.0000 -0.3820
vt 0.0674 0.0000 -1.2361
vt 0.5281 0.0000 -0.3820
vt 0.9500 0.0000 1.0000
vt 0.7500 0.0000 1.0000
vt 0.9500 0.3333 1.0000
vt 0.7500 0.3333 1.0000
vt -0.0500 0.0000 1.0000
vt 0.1500 0.0000 1.0000
vt 0.1500 0.3333 1.0000
vt -0.0500 0.3333 1.0000
vt 0.3500 0.0000 1.0000
vt 0.3500 0.3333 1.0000
vt 0.5500 0.0000 1.0000
vt 0.5500 0.3333 1.0000
vt 0.9500 0.6667 1.0000
vt 0.7500 0.6667 1.0000
vt 0.1500 0.6667 1.0000
vt -0.0500 0.6667 1.0000
vt 0.3500 0.6667 1.0000
vt 0.5500 0.6667 1.0000
vt 0.9500 1.0000 1.0000
vt 0.7500 1.0000 1.0000
vt 0.1500 1.0000 1.0000
vt -0.0500 1.0000 1.0000
vt 0.3500 1.0000 1.0000
vt 0.5500 1.0000 1.0000
vt 0.5281 1.0000 -0.3820
vt 0.0674 1.0000 -1.2361
# 29 texture coords

o Cylinder004
g Cylinder004
usemtl wire_227153153
s 1
f 1/1/1 2/2/2 3/3/3 4/4/4 5/5/5 
s 8
f 5/5/5 4/4/4 6/6/6 7/7/7 
f 4/8/4 3/9/3 8/10/8 6/11/6 
f 3/9/3 2/12/2 9/13/9 8/10/8 
f 2/12/2 1/14/1 10/15/10 9/13/9 
f 1/14/1 5/5/5 7/7/7 10/15/10 
f 7/7/7 6/6/6 11/16/11 12/17/12 
f 6/11/6 8/10/8 13/18/13 11/19/11 
f 8/10/8 9/13/9 14/20/14 13/18/13 
f 9/13/9 10/15/10 15/21/15 14/20/14 
f 10/15/10 7/7/7 12/17/12 15/21/15 
f 12/17/12 11/16/11 16/22/16 17/23/17 
f 11/19/11 13/18/13 18/24/18 16/25/16 
f 13/18/13 14/20/14 19/26/19 18/24/18 
f 14/20/14 15/21/15 20/27/20 19/26/19 
f 15/21/15 12/17/12 17/23/17 20/27/20 
s 1
f 20/27/20 17/23/17 16/22/16 18/28/18 19/29/19 
# 17 polygons

