# 3ds Max Wavefront OBJ Exporter v0.97b - (c)2007 guruware
# File Created: 10.07.2020 16:44:00

mtllib Ramo fine.mtl

#
# object Cylinder011
#

v  -122.0496 17.3127 0.4347
v  -122.3241 17.0824 0.4347
v  -122.4613 16.9672 0.1244
v  -122.3241 17.0824 -0.1860
v  -122.0496 17.3127 -0.1860
v  -121.9123 17.4279 0.1244
v  -133.1950 21.2393 -0.1860
v  -133.0577 21.3544 0.1244
v  -133.4695 21.0089 -0.1860
v  -133.6068 20.8937 0.1244
v  -133.4695 21.0089 0.4347
v  -133.1950 21.2393 0.4347
v  -139.0052 30.5091 -0.1860
v  -138.8680 30.6242 0.1244
v  -139.2797 30.2787 -0.1860
v  -139.4170 30.1635 0.1244
v  -139.2797 30.2787 0.4347
v  -139.0052 30.5091 0.4347
# 18 vertices

vn 0.7144 -0.0228 0.6994
vn 0.2426 -0.6891 0.6829
vn 0.0550 -0.9985 0.0000
vn 0.2426 -0.6891 -0.6829
vn 0.7144 -0.0228 -0.6994
vn 0.9608 0.2774 0.0000
vn 0.2646 0.3188 -0.9101
vn 0.6055 0.7958 -0.0000
vn -0.3491 -0.4587 -0.8171
vn -0.6387 -0.7695 0.0000
vn -0.3491 -0.4587 0.8171
vn 0.2646 0.3188 0.9101
vn -0.0430 0.7237 -0.6888
vn 0.2774 0.9608 -0.0000
vn -0.6834 0.2543 -0.6844
vn -0.9997 0.0246 0.0000
vn -0.6834 0.2543 0.6844
vn -0.0430 0.7237 0.6888
# 18 vertex normals

vt 0.3333 0.0000 -0.0000
vt 0.0833 0.0000 -1.0000
vt 0.2500 0.0000 -1.0000
vt 0.6667 0.0000 0.0000
vt 0.9167 0.0000 1.0000
vt 0.7500 0.0000 1.0000
vt 0.9167 0.5000 1.0000
vt 0.7500 0.5000 1.0000
vt -0.0833 0.0000 1.0000
vt 0.0833 0.0000 1.0000
vt 0.0833 0.5000 1.0000
vt -0.0833 0.5000 1.0000
vt 0.2500 0.0000 1.0000
vt 0.2500 0.5000 1.0000
vt 0.4167 0.0000 1.0000
vt 0.4167 0.5000 1.0000
vt 0.5833 0.0000 1.0000
vt 0.5833 0.5000 1.0000
vt 0.9167 1.0000 1.0000
vt 0.7500 1.0000 1.0000
vt 0.0833 1.0000 1.0000
vt -0.0833 1.0000 1.0000
vt 0.2500 1.0000 1.0000
vt 0.4167 1.0000 1.0000
vt 0.5833 1.0000 1.0000
vt 0.6667 1.0000 -0.0000
vt 0.2500 1.0000 -1.0000
vt 0.0833 1.0000 -1.0000
# 28 texture coords

o Cylinder011
g Cylinder011
usemtl wire_138008110
s 1
f 1/1/1 2/2/2 3/3/3 4/4/4 5/5/5 6/6/6 
s 8
f 6/6/6 5/5/5 7/7/7 8/8/8 
f 5/9/5 4/10/4 9/11/9 7/12/7 
f 4/10/4 3/13/3 10/14/10 9/11/9 
f 3/13/3 2/15/2 11/16/11 10/14/10 
f 2/15/2 1/17/1 12/18/12 11/16/11 
f 1/17/1 6/6/6 8/8/8 12/18/12 
f 8/8/8 7/7/7 13/19/13 14/20/14 
f 7/12/7 9/11/9 15/21/15 13/22/13 
f 9/11/9 10/14/10 16/23/16 15/21/15 
f 10/14/10 11/16/11 17/24/17 16/23/16 
f 11/16/11 12/18/12 18/25/18 17/24/17 
f 12/18/12 8/8/8 14/20/14 18/25/18 
s 1
f 18/25/18 14/20/14 13/19/13 15/26/15 16/27/16 17/28/17 
# 14 polygons

