# 3ds Max Wavefront OBJ Exporter v0.97b - (c)2007 guruware
# File Created: 10.07.2020 16:44:23

mtllib Ramo spesso.mtl

#
# object 4Tronco
#

v  -97.6623 15.1353 -2.3242
v  -95.6444 15.1353 -3.7903
v  -93.1501 15.8228 -3.7903
v  -91.1322 15.8228 -2.3242
v  -90.3615 15.8228 0.0480
v  -91.1322 15.8228 2.4202
v  -93.1501 15.8228 3.8862
v  -95.6444 15.1353 3.8862
v  -97.6623 15.1353 2.4202
v  -98.4330 15.1353 0.0480
v  -105.8200 18.7886 1.1220
v  -106.1058 18.5885 0.0480
v  -105.0715 19.3127 1.7858
v  -104.1465 20.5711 1.7858
v  -103.3981 21.0951 1.1220
v  -103.1122 21.2953 0.0480
v  -103.3981 21.0951 -1.0261
v  -104.1465 20.5711 -1.6898
v  -105.0715 19.3127 -1.6898
v  -105.8200 18.7886 -1.0260
v  -109.0426 23.6922 1.0263
v  -109.3881 23.5664 0.0480
v  -108.2964 24.1437 1.6309
v  -107.3628 24.7929 1.6309
v  -106.4582 25.1221 1.0263
v  -106.1127 25.2479 0.0480
v  -106.4582 25.1221 -0.9303
v  -107.3627 24.7929 -1.5349
v  -108.2964 24.1437 -1.5349
v  -109.0426 23.6922 -0.9303
# 30 vertices

vn -0.1209 -0.9838 -0.1326
vn -0.0103 -0.5003 -0.8658
vn 0.4612 -0.0188 -0.8871
vn 0.8507 -0.0763 -0.5201
vn 0.9976 -0.0696 0.0000
vn 0.8507 -0.0763 0.5201
vn 0.4612 -0.0188 0.8871
vn -0.0103 -0.5003 0.8658
vn -0.1209 -0.9838 0.1326
vn -0.1030 -0.9947 0.0000
vn -0.3515 -0.8551 0.3812
vn -0.3665 -0.9304 -0.0000
vn -0.2201 -0.4330 0.8741
vn 0.0743 0.5337 0.8424
vn 0.2527 0.9140 0.3173
vn 0.2911 0.9567 0.0000
vn 0.2527 0.9141 -0.3173
vn 0.0743 0.5337 -0.8424
vn -0.2201 -0.4330 -0.8741
vn -0.3515 -0.8551 -0.3812
vn -0.4771 -0.7923 0.3803
vn -0.5056 -0.8628 -0.0000
vn -0.3190 -0.4834 0.8152
vn 0.0777 0.2449 0.9664
vn 0.3817 0.7810 0.4943
vn 0.4536 0.8912 0.0000
vn 0.3817 0.7810 -0.4943
vn 0.0777 0.2449 -0.9664
vn -0.3190 -0.4834 -0.8152
vn -0.4771 -0.7923 -0.3803
# 30 vertex normals

vt 0.3382 0.0000 0.0000
vt 0.1219 0.0000 -0.6180
vt 0.0500 0.0000 -1.0000
vt 0.1500 0.0000 -1.0000
vt 0.3837 0.0000 -0.6180
vt 0.6618 0.0000 -0.0000
vt 0.8781 0.0000 0.6180
vt 0.9500 0.0000 1.0000
vt 0.8500 0.0000 1.0000
vt 0.7500 0.0000 1.0000
vt 0.8500 0.3333 1.0000
vt 0.7500 0.3333 1.0000
vt 0.9500 0.3333 1.0000
vt -0.0500 0.0000 1.0000
vt 0.0500 0.0000 1.0000
vt 0.0500 0.3333 1.0000
vt -0.0500 0.3333 1.0000
vt 0.1500 0.0000 1.0000
vt 0.1500 0.3333 1.0000
vt 0.2500 0.0000 1.0000
vt 0.2500 0.3333 1.0000
vt 0.3500 0.0000 1.0000
vt 0.3500 0.3333 1.0000
vt 0.4500 0.0000 1.0000
vt 0.4500 0.3333 1.0000
vt 0.5500 0.0000 1.0000
vt 0.5500 0.3333 1.0000
vt 0.6500 0.0000 1.0000
vt 0.6500 0.3333 1.0000
vt 0.8500 0.6667 1.0000
vt 0.7500 0.6667 1.0000
vt 0.9500 0.6667 1.0000
vt 0.0500 0.6667 1.0000
vt -0.0500 0.6667 1.0000
vt 0.1500 0.6667 1.0000
vt 0.2500 0.6667 1.0000
vt 0.3500 0.6667 1.0000
vt 0.4500 0.6667 1.0000
vt 0.5500 0.6667 1.0000
vt 0.6500 0.6667 1.0000
# 40 texture coords

o 4Tronco
g 4Tronco
usemtl wire_228184153
s 1
f 1/1/1 2/2/2 3/3/3 4/4/4 5/5/5 6/6/6 7/7/7 8/8/8 9/9/9 10/10/10 
s 8
f 10/10/10 9/9/9 11/11/11 12/12/12 
f 9/9/9 8/8/8 13/13/13 11/11/11 
f 8/14/8 7/15/7 14/16/14 13/17/13 
f 7/15/7 6/18/6 15/19/15 14/16/14 
f 6/18/6 5/20/5 16/21/16 15/19/15 
f 5/20/5 4/22/4 17/23/17 16/21/16 
f 4/22/4 3/24/3 18/25/18 17/23/17 
f 3/24/3 2/26/2 19/27/19 18/25/18 
f 2/26/2 1/28/1 20/29/20 19/27/19 
f 1/28/1 10/10/10 12/12/12 20/29/20 
f 12/12/12 11/11/11 21/30/21 22/31/22 
f 11/11/11 13/13/13 23/32/23 21/30/21 
f 13/17/13 14/16/14 24/33/24 23/34/23 
f 14/16/14 15/19/15 25/35/25 24/33/24 
f 15/19/15 16/21/16 26/36/26 25/35/25 
f 16/21/16 17/23/17 27/37/27 26/36/26 
f 17/23/17 18/25/18 28/38/28 27/37/27 
f 18/25/18 19/27/19 29/39/29 28/38/28 
f 19/27/19 20/29/20 30/40/30 29/39/29 
f 20/29/20 12/12/12 22/31/22 30/40/30 
# 21 polygons

