# 3ds Max Wavefront OBJ Exporter v0.97b - (c)2007 guruware
# File Created: 10.07.2020 16:45:19

mtllib Ramo storto.mtl

#
# object 5Tronco002
#

v  -29.6542 15.1985 -0.7847
v  -28.9459 15.1985 -1.2994
v  -28.0703 15.1985 -1.2994
v  -27.3620 15.1985 -0.7847
v  -27.0914 15.1985 0.0480
v  -27.3620 15.1985 0.8807
v  -28.0703 15.1985 1.3953
v  -28.9459 15.1985 1.3953
v  -29.6542 15.1985 0.8807
v  -29.9248 15.1985 0.0480
v  -43.6877 23.2597 0.7111
v  -43.8642 23.1361 0.0480
v  -43.2256 23.5832 1.1210
v  -42.6545 23.9832 1.1210
v  -42.1924 24.3067 0.7111
v  -42.0159 24.4303 0.0480
v  -42.1924 24.3067 -0.6151
v  -42.6545 23.9832 -1.0250
v  -43.2256 23.5832 -1.0250
v  -43.6877 23.2597 -0.6151
v  -46.8451 32.4295 0.5908
v  -47.0108 32.3692 0.0480
v  -46.4112 32.5875 0.9263
v  -45.8748 32.7827 0.9263
v  -45.4409 32.9406 0.5908
v  -45.2752 33.0009 0.0480
v  -45.4409 32.9406 -0.4948
v  -45.8748 32.7827 -0.8303
v  -46.4112 32.5875 -0.8303
v  -46.8451 32.4295 -0.4948
# 30 vertices

vn -0.1293 -0.9828 -0.1316
vn -0.0330 -0.6785 -0.7339
vn 0.4745 -0.1814 -0.8614
vn 0.8546 -0.1127 -0.5069
vn 0.9951 -0.0993 -0.0000
vn 0.8546 -0.1127 0.5069
vn 0.4745 -0.1814 0.8614
vn -0.0330 -0.6785 0.7339
vn -0.1293 -0.9828 0.1316
vn -0.1293 -0.9916 0.0000
vn -0.4733 -0.7683 0.4309
vn -0.5373 -0.8434 0.0000
vn -0.2144 -0.4555 0.8641
vn 0.1805 0.3141 0.9321
vn 0.4087 0.8147 0.4114
vn 0.4608 0.8875 0.0000
vn 0.4087 0.8147 -0.4114
vn 0.1805 0.3141 -0.9321
vn -0.2144 -0.4555 -0.8641
vn -0.4733 -0.7683 -0.4309
vn -0.6717 -0.5831 0.4569
vn -0.7500 -0.6615 0.0000
vn -0.3752 -0.2943 0.8790
vn 0.1697 0.2158 0.9616
vn 0.5920 0.5960 0.5425
vn 0.7127 0.7015 -0.0000
vn 0.5920 0.5960 -0.5425
vn 0.1697 0.2158 -0.9616
vn -0.3752 -0.2943 -0.8790
vn -0.6717 -0.5831 -0.4569
# 30 vertex normals

vt 0.3382 0.0000 0.0000
vt 0.1219 0.0000 -0.6180
vt 0.0500 0.0000 -1.0000
vt 0.1500 0.0000 -1.0000
vt 0.3837 0.0000 -0.6180
vt 0.6618 0.0000 -0.0000
vt 0.8781 0.0000 0.6180
vt 0.9500 0.0000 1.0000
vt 0.8500 0.0000 1.0000
vt 0.7500 0.0000 1.0000
vt 0.8500 0.3333 1.0000
vt 0.7500 0.3333 1.0000
vt 0.9500 0.3333 1.0000
vt -0.0500 0.0000 1.0000
vt 0.0500 0.0000 1.0000
vt 0.0500 0.3333 1.0000
vt -0.0500 0.3333 1.0000
vt 0.1500 0.0000 1.0000
vt 0.1500 0.3333 1.0000
vt 0.2500 0.0000 1.0000
vt 0.2500 0.3333 1.0000
vt 0.3500 0.0000 1.0000
vt 0.3500 0.3333 1.0000
vt 0.4500 0.0000 1.0000
vt 0.4500 0.3333 1.0000
vt 0.5500 0.0000 1.0000
vt 0.5500 0.3333 1.0000
vt 0.6500 0.0000 1.0000
vt 0.6500 0.3333 1.0000
vt 0.8500 0.6667 1.0000
vt 0.7500 0.6667 1.0000
vt 0.9500 0.6667 1.0000
vt 0.0500 0.6667 1.0000
vt -0.0500 0.6667 1.0000
vt 0.1500 0.6667 1.0000
vt 0.2500 0.6667 1.0000
vt 0.3500 0.6667 1.0000
vt 0.4500 0.6667 1.0000
vt 0.5500 0.6667 1.0000
vt 0.6500 0.6667 1.0000
# 40 texture coords

o 5Tronco002
g 5Tronco002
usemtl wire_228184153
s 1
f 1/1/1 2/2/2 3/3/3 4/4/4 5/5/5 6/6/6 7/7/7 8/8/8 9/9/9 10/10/10 
s 8
f 10/10/10 9/9/9 11/11/11 12/12/12 
f 9/9/9 8/8/8 13/13/13 11/11/11 
f 8/14/8 7/15/7 14/16/14 13/17/13 
f 7/15/7 6/18/6 15/19/15 14/16/14 
f 6/18/6 5/20/5 16/21/16 15/19/15 
f 5/20/5 4/22/4 17/23/17 16/21/16 
f 4/22/4 3/24/3 18/25/18 17/23/17 
f 3/24/3 2/26/2 19/27/19 18/25/18 
f 2/26/2 1/28/1 20/29/20 19/27/19 
f 1/28/1 10/10/10 12/12/12 20/29/20 
f 12/12/12 11/11/11 21/30/21 22/31/22 
f 11/11/11 13/13/13 23/32/23 21/30/21 
f 13/17/13 14/16/14 24/33/24 23/34/23 
f 14/16/14 15/19/15 25/35/25 24/33/24 
f 15/19/15 16/21/16 26/36/26 25/35/25 
f 16/21/16 17/23/17 27/37/27 26/36/26 
f 17/23/17 18/25/18 28/38/28 27/37/27 
f 18/25/18 19/27/19 29/39/29 28/38/28 
f 19/27/19 20/29/20 30/40/30 29/39/29 
f 20/29/20 12/12/12 22/31/22 30/40/30 
# 21 polygons

